<svg id="Layer_1" data-name="Layer 1" xmlns="http://www.w3.org/2000/svg" xmlns:xlink="http://www.w3.org/1999/xlink" viewBox="0 0 596.04 440.43"><defs><style>.cls-1{fill:url(#Gold);}.cls-2{fill:url(#Gold-2);}.cls-3{fill:#a7a9ac;}.cls-4{fill:url(#Gold_Radial);}.cls-12,.cls-13,.cls-135,.cls-136,.cls-139,.cls-14,.cls-147,.cls-17,.cls-177,.cls-178,.cls-18,.cls-181,.cls-192,.cls-193,.cls-196,.cls-22,.cls-5,.cls-7,.cls-8{stroke-miterlimit:10;}.cls-5{fill:url(#linear-gradient);stroke:url(#Gold-3);}.cls-6{fill:#231f20;}.cls-7{fill:url(#linear-gradient-2);stroke:url(#Gold-4);}.cls-8{fill:url(#linear-gradient-3);stroke:url(#Gold-5);}.cls-9{fill:url(#Gold-6);}.cls-10{fill:url(#Gold-7);}.cls-11{fill:url(#Gold-8);}.cls-12,.cls-13,.cls-14{stroke-width:1.33px;}.cls-12{fill:url(#Gold-9);stroke:url(#Gold-10);}.cls-13{fill:url(#Gold-11);stroke:url(#Gold-12);}.cls-14{fill:url(#Gold-13);stroke:url(#Gold-14);}.cls-15{fill:url(#White_Gold);}.cls-16{fill:url(#Gold_Radial-2);}.cls-17{fill:url(#White_Gold-2);stroke:url(#Polished_Brass);}.cls-18{fill:url(#White_Gold-3);stroke:url(#Polished_Brass-2);}.cls-19{fill:url(#Gold-15);}.cls-20{fill:url(#Gold-16);}.cls-21{fill:url(#Gold-19);}.cls-135,.cls-136,.cls-139,.cls-177,.cls-178,.cls-181,.cls-192,.cls-193,.cls-196,.cls-22,.cls-26{fill:#fff;}.cls-22{stroke:url(#Gold-21);}.cls-23{fill:url(#Gold-22);}.cls-24{fill:url(#White_Gold-4);}.cls-25{fill:url(#Gold-23);}.cls-27{fill:url(#Gold-24);}.cls-28{fill:url(#Gold-25);}.cls-29{fill:url(#Gold-26);}.cls-30{fill:url(#Gold-27);}.cls-31{fill:url(#Gold-28);}.cls-32{fill:url(#Gold-29);}.cls-33{fill:url(#Gold-30);}.cls-34{fill:url(#Gold-31);}.cls-35{fill:url(#Gold-32);}.cls-36{fill:url(#Gold-33);}.cls-37{fill:url(#Gold-34);}.cls-38{fill:url(#Gold-35);}.cls-39{fill:url(#White_Gold-5);}.cls-40{fill:url(#Gold-36);}.cls-41{fill:url(#Gold-37);}.cls-42{fill:url(#Gold-38);}.cls-43{fill:url(#Gold-39);}.cls-44{fill:url(#Gold-40);}.cls-45{fill:url(#Gold-41);}.cls-46{fill:url(#Gold-42);}.cls-47{fill:url(#Gold-43);}.cls-48{fill:url(#Gold-44);}.cls-49{fill:url(#Gold-45);}.cls-50{fill:url(#Gold-46);}.cls-51{fill:url(#Gold-47);}.cls-52{fill:url(#Gold-48);}.cls-53{fill:url(#Gold-49);}.cls-54{fill:url(#Gold-50);}.cls-55{fill:url(#Gold-51);}.cls-56{fill:url(#Gold-52);}.cls-57{fill:url(#Gold-53);}.cls-58{fill:url(#Gold-54);}.cls-59{fill:url(#Gold-55);}.cls-60{fill:url(#Gold-56);}.cls-61{fill:url(#Gold-57);}.cls-62{fill:url(#Gold-58);}.cls-63{fill:url(#Gold-59);}.cls-64{fill:url(#Gold-60);}.cls-65{fill:url(#White_Gold-6);}.cls-66{fill:url(#Gold-61);}.cls-67{fill:url(#Gold-62);}.cls-68{fill:url(#Gold-63);}.cls-69{fill:url(#Gold-64);}.cls-70{fill:url(#Gold-65);}.cls-71{fill:url(#Gold-66);}.cls-72{fill:url(#Gold-67);}.cls-73{fill:url(#Gold-68);}.cls-74{fill:url(#Gold-69);}.cls-75{fill:url(#Gold-70);}.cls-76{fill:url(#Gold-71);}.cls-77{fill:url(#Gold-72);}.cls-78{fill:url(#Gold-73);}.cls-79{fill:url(#Gold-74);}.cls-80{fill:url(#Gold-75);}.cls-81{fill:url(#Gold-76);}.cls-82{fill:url(#Gold-77);}.cls-83{fill:url(#Gold-78);}.cls-84{fill:url(#Gold-79);}.cls-85{fill:url(#Gold-80);}.cls-86{fill:url(#Gold-81);}.cls-87{fill:url(#Gold-82);}.cls-88{fill:url(#Gold-83);}.cls-89{fill:url(#Gold-84);}.cls-90{fill:url(#Gold-85);}.cls-91{fill:url(#White_Gold-7);}.cls-92{fill:url(#Gold-86);}.cls-93{fill:url(#Gold-87);}.cls-94{fill:url(#Gold-88);}.cls-95{fill:url(#Gold-89);}.cls-96{fill:url(#Gold-90);}.cls-97{fill:url(#Gold-91);}.cls-98{fill:url(#Gold-92);}.cls-99{fill:url(#Gold-93);}.cls-100{fill:url(#Gold-94);}.cls-101{fill:url(#Gold-95);}.cls-102{fill:url(#Gold-96);}.cls-103{fill:url(#Gold-97);}.cls-104{fill:url(#Gold-98);}.cls-105{fill:url(#White_Gold-8);}.cls-106{fill:url(#Gold-99);}.cls-107{fill:url(#Gold-100);}.cls-108{fill:url(#Gold-101);}.cls-109{fill:url(#Gold-102);}.cls-110{fill:url(#Gold-103);}.cls-111{fill:url(#Gold-104);}.cls-112{fill:url(#Gold-105);}.cls-113{fill:url(#Gold-106);}.cls-114{fill:url(#Gold-107);}.cls-115{fill:url(#Gold-108);}.cls-116{fill:url(#Gold-109);}.cls-117{fill:url(#Gold-110);}.cls-118{fill:url(#Gold-111);}.cls-119{fill:url(#Gold-112);}.cls-120{fill:url(#Gold-113);}.cls-121{fill:url(#Gold-114);}.cls-122{fill:url(#Gold-115);}.cls-123{fill:url(#Gold-116);}.cls-124{fill:url(#Gold-117);}.cls-125{fill:url(#Gold-118);}.cls-126{fill:url(#Gold-119);}.cls-127{fill:url(#Gold-120);}.cls-128{fill:url(#Gold-121);}.cls-129{fill:url(#Gold-122);}.cls-130{fill:url(#Gold-123);}.cls-131{fill:url(#White_Gold-9);}.cls-132{fill:url(#Gold-124);}.cls-133{fill:url(#Gold-125);}.cls-134{fill:url(#Gold-126);}.cls-135{stroke:url(#White_Gold-10);}.cls-136{stroke:url(#White_Gold-11);}.cls-137{fill:url(#White_Gold-12);}.cls-138{fill:url(#White_Gold-13);}.cls-139{stroke:url(#White_Gold-14);}.cls-140{fill:url(#Gold-127);}.cls-141{fill:url(#Gold-128);}.cls-142{fill:url(#Gold-129);}.cls-143{fill:url(#White_Gold-15);}.cls-144{fill:url(#White_Gold-16);}.cls-145{fill:url(#White_Gold-17);}.cls-146{fill:url(#White_Gold-18);}.cls-147{fill:url(#White_Gold-19);stroke:url(#Polished_Brass-3);}.cls-148{fill:url(#Gold-130);}.cls-149{fill:url(#White_Gold-20);}.cls-150{fill:url(#White_Gold-21);}.cls-151{fill:url(#White_Gold-22);}.cls-152{fill:url(#White_Gold-23);}.cls-153{fill:url(#White_Gold-24);}.cls-154{fill:url(#White_Gold-25);}.cls-155{fill:url(#White_Gold-26);}.cls-156{fill:url(#White_Gold-27);}.cls-157{fill:url(#White_Gold-28);}.cls-158{fill:url(#White_Gold-29);}.cls-159{fill:url(#White_Gold-30);}.cls-160{fill:url(#White_Gold-31);}.cls-161{fill:url(#White_Gold-32);}.cls-162{fill:url(#White_Gold-33);}.cls-163{fill:url(#White_Gold-34);}.cls-164{fill:url(#White_Gold-35);}.cls-165{fill:url(#White_Gold-36);}.cls-166{fill:url(#White_Gold-37);}.cls-167{fill:url(#White_Gold-38);}.cls-168{fill:url(#White_Gold-39);}.cls-169{fill:url(#White_Gold-40);}.cls-170{fill:url(#White_Gold-41);}.cls-171{fill:url(#White_Gold-42);}.cls-172{fill:url(#White_Gold-43);}.cls-173{fill:#d1d3d4;}.cls-174{fill:url(#Gold-131);}.cls-175{fill:url(#Gold-132);}.cls-176{fill:url(#Gold-133);}.cls-177{stroke:url(#White_Gold-44);}.cls-178{stroke:url(#White_Gold-45);}.cls-179{fill:url(#White_Gold-46);}.cls-180{fill:url(#White_Gold-47);}.cls-181{stroke:url(#White_Gold-48);}.cls-182{fill:url(#Gold-134);}.cls-183{fill:url(#Gold-135);}.cls-184{fill:url(#Gold-136);}.cls-185{fill:url(#White_Gold-49);}.cls-186{fill:url(#White_Gold-50);}.cls-187{fill:url(#White_Gold-51);}.cls-188{fill:url(#White_Gold-52);}.cls-189{fill:url(#Gold-137);}.cls-190{fill:url(#Gold-138);}.cls-191{fill:url(#Gold-139);}.cls-192{stroke:url(#White_Gold-53);}.cls-193{stroke:url(#White_Gold-54);}.cls-194{fill:url(#White_Gold-55);}.cls-195{fill:url(#White_Gold-56);}.cls-196{stroke:url(#White_Gold-57);}.cls-197{fill:url(#Gold-140);}.cls-198{fill:url(#Gold-141);}.cls-199{fill:url(#Gold-142);}.cls-200{fill:url(#White_Gold-58);}.cls-201{fill:url(#White_Gold-59);}.cls-202{fill:url(#White_Gold-60);}.cls-203{fill:url(#White_Gold-61);}</style><linearGradient id="Gold" x1="150.35" y1="298.49" x2="178.82" y2="298.49" gradientUnits="userSpaceOnUse"><stop offset="0.01" stop-color="#fbc926"/><stop offset="0.25" stop-color="#fffbcc"/><stop offset="0.3" stop-color="#f8f0bb"/><stop offset="0.41" stop-color="#e7d28e"/><stop offset="0.55" stop-color="#cca246"/><stop offset="0.6" stop-color="#c3922e"/><stop offset="0.87" stop-color="#eed688"/><stop offset="1" stop-color="#fffbcc"/></linearGradient><linearGradient id="Gold-2" x1="371.37" y1="298.49" x2="389.8" y2="298.49" xlink:href="#Gold"/><radialGradient id="Gold_Radial" cx="360" cy="374.33" r="180.17" gradientUnits="userSpaceOnUse"><stop offset="0" stop-color="#fffbcc"/><stop offset="0.11" stop-color="#fbf2bb"/><stop offset="0.34" stop-color="#f0d98e"/><stop offset="0.37" stop-color="#eed688"/><stop offset="0.69" stop-color="#ebbb10"/><stop offset="1" stop-color="#c3922e"/></radialGradient><linearGradient id="linear-gradient" x1="360.45" y1="456.09" x2="396.17" y2="467.62" gradientUnits="userSpaceOnUse"><stop offset="0.01" stop-color="#dee3e6"/><stop offset="0.04" stop-color="#e9e9ea"/><stop offset="0.25" stop-color="#fdfeff"/><stop offset="0.41" stop-color="#ecedee"/><stop offset="0.54" stop-color="#dadbdc"/><stop offset="0.79" stop-color="#fff"/><stop offset="1" stop-color="#ebebec"/></linearGradient><linearGradient id="Gold-3" x1="380.92" y1="462.73" x2="421.93" y2="462.73" xlink:href="#Gold"/><linearGradient id="linear-gradient-2" x1="360.25" y1="456.17" x2="325.27" y2="466.97" xlink:href="#linear-gradient"/><linearGradient id="Gold-4" x1="298.07" y1="462.73" x2="339.08" y2="462.73" xlink:href="#Gold"/><linearGradient id="linear-gradient-3" x1="276.59" y1="334.66" x2="319.44" y2="334.66" xlink:href="#linear-gradient"/><linearGradient id="Gold-5" x1="276.09" y1="334.66" x2="319.94" y2="334.66" xlink:href="#Gold"/><linearGradient id="Gold-6" x1="294.38" y1="300.21" x2="300.67" y2="300.21" xlink:href="#Gold"/><linearGradient id="Gold-7" x1="129.12" y1="300.21" x2="134.78" y2="300.21" xlink:href="#Gold"/><linearGradient id="Gold-8" x1="473.29" y1="300.21" x2="478.96" y2="300.21" xlink:href="#Gold"/><linearGradient id="Gold-9" x1="290.74" y1="175.8" x2="346.28" y2="183.34" xlink:href="#Gold"/><linearGradient id="Gold-10" x1="307.03" y1="179.88" x2="336.02" y2="179.88" xlink:href="#Gold"/><linearGradient id="Gold-11" x1="285.87" y1="156.98" x2="328.29" y2="156.7" xlink:href="#Gold"/><linearGradient id="Gold-12" x1="281.62" y1="157.11" x2="336.04" y2="157.11" xlink:href="#Gold"/><linearGradient id="Gold-13" x1="304.86" y1="163.46" x2="360.64" y2="163.46" xlink:href="#Gold"/><linearGradient id="Gold-14" x1="304.15" y1="163.78" x2="361.31" y2="163.78" xlink:href="#Gold"/><linearGradient id="White_Gold" x1="297.92" y1="62.87" x2="304.31" y2="62.87" gradientUnits="userSpaceOnUse"><stop offset="0.01" stop-color="#dee3e6"/><stop offset="0.25" stop-color="#fffde5"/><stop offset="0.4" stop-color="#f0ecd8"/><stop offset="0.6" stop-color="#d6cdc1"/><stop offset="0.79" stop-color="#ededee"/><stop offset="1" stop-color="#d8d5bb"/></linearGradient><radialGradient id="Gold_Radial-2" cx="363.26" cy="138.37" r="9.17" xlink:href="#Gold_Radial"/><linearGradient id="White_Gold-2" x1="259.54" y1="100.68" x2="342.9" y2="100.68" xlink:href="#White_Gold"/><linearGradient id="Polished_Brass" x1="258.14" y1="100.68" x2="344.3" y2="100.68" gradientUnits="userSpaceOnUse"><stop offset="0.01" stop-color="#ebc17d"/><stop offset="0.19" stop-color="#edd089"/><stop offset="0.41" stop-color="#f4e8d9"/><stop offset="0.73" stop-color="#c08329"/><stop offset="0.95" stop-color="#eabe81"/></linearGradient><linearGradient id="White_Gold-3" x1="-1611.33" y1="-1354.82" x2="-1609.59" y2="-1354.82" gradientTransform="translate(-181324.21 -152649.66) rotate(180) scale(112.78 112.78)" xlink:href="#White_Gold"/><linearGradient id="Polished_Brass-2" x1="202.33" y1="145.68" x2="400.11" y2="145.68" xlink:href="#Polished_Brass"/><linearGradient id="Gold-15" x1="250.26" y1="146.29" x2="353.54" y2="146.29" xlink:href="#Gold"/><linearGradient id="Gold-16" x1="250.26" y1="147.38" x2="353.54" y2="147.38" xlink:href="#Gold"/><linearGradient id="Gold-19" x1="250.26" y1="146.92" x2="353.54" y2="146.92" xlink:href="#Gold"/><linearGradient id="Gold-21" x1="247.76" y1="114.52" x2="354.68" y2="114.52" xlink:href="#Gold"/><linearGradient id="Gold-22" x1="94.48" y1="333.89" x2="625.52" y2="333.89" xlink:href="#Gold"/><linearGradient id="White_Gold-4" x1="-1619.45" y1="-1346.91" x2="-1617.71" y2="-1346.91" gradientTransform="translate(-484204.05 -402901.17) rotate(180) scale(299.38 299.38)" xlink:href="#White_Gold"/><linearGradient id="Gold-23" x1="268.39" y1="184.31" x2="327.65" y2="184.31" xlink:href="#Gold"/><linearGradient id="Gold-24" x1="262.16" y1="157.6" x2="280.32" y2="157.6" xlink:href="#Gold"/><linearGradient id="Gold-25" x1="332.21" y1="271.52" x2="344.18" y2="271.52" xlink:href="#Gold"/><linearGradient id="Gold-26" x1="341.53" y1="263.85" x2="351.46" y2="263.85" xlink:href="#Gold"/><linearGradient id="Gold-27" x1="377.69" y1="285.8" x2="395.85" y2="285.8" xlink:href="#Gold"/><linearGradient id="Gold-28" x1="375.82" y1="271.52" x2="387.79" y2="271.52" xlink:href="#Gold"/><linearGradient id="Gold-29" x1="368.54" y1="263.85" x2="378.47" y2="263.85" xlink:href="#Gold"/><linearGradient id="Gold-30" x1="377.69" y1="339.22" x2="395.85" y2="339.22" xlink:href="#Gold"/><linearGradient id="Gold-31" x1="375.82" y1="353.5" x2="387.79" y2="353.5" xlink:href="#Gold"/><linearGradient id="Gold-32" x1="368.54" y1="361.17" x2="378.47" y2="361.17" xlink:href="#Gold"/><linearGradient id="Gold-33" x1="324.15" y1="339.22" x2="342.31" y2="339.22" xlink:href="#Gold"/><linearGradient id="Gold-34" x1="332.21" y1="353.5" x2="344.18" y2="353.5" xlink:href="#Gold"/><linearGradient id="Gold-35" x1="341.53" y1="361.17" x2="351.46" y2="361.17" xlink:href="#Gold"/><linearGradient id="White_Gold-5" x1="-1570.19" y1="-1395.82" x2="-1568.46" y2="-1395.82" gradientTransform="translate(-42286.21 -37618.76) rotate(180) scale(27.17)" xlink:href="#White_Gold"/><linearGradient id="Gold-36" x1="472.91" y1="324.93" x2="523.35" y2="324.93" xlink:href="#Gold"/><linearGradient id="Gold-37" x1="472.14" y1="299.17" x2="487.24" y2="299.17" xlink:href="#Gold"/><linearGradient id="Gold-38" x1="475.56" y1="299.16" x2="483.83" y2="299.16" xlink:href="#Gold"/><linearGradient id="Gold-39" x1="480.67" y1="288.18" x2="490.63" y2="288.18" xlink:href="#Gold"/><linearGradient id="Gold-40" x1="482.92" y1="288.17" x2="488.37" y2="288.17" xlink:href="#Gold"/><linearGradient id="Gold-41" x1="489.33" y1="283.08" x2="497.59" y2="283.08" xlink:href="#Gold"/><linearGradient id="Gold-42" x1="491.2" y1="283.07" x2="495.72" y2="283.07" xlink:href="#Gold"/><linearGradient id="Gold-43" x1="516.05" y1="306.88" x2="531.15" y2="306.88" xlink:href="#Gold"/><linearGradient id="Gold-44" x1="519.47" y1="306.88" x2="527.73" y2="306.88" xlink:href="#Gold"/><linearGradient id="Gold-45" x1="516.43" y1="294.45" x2="526.38" y2="294.45" xlink:href="#Gold"/><linearGradient id="Gold-46" x1="518.68" y1="294.45" x2="524.13" y2="294.45" xlink:href="#Gold"/><linearGradient id="Gold-47" x1="511.48" y1="286.97" x2="519.74" y2="286.97" xlink:href="#Gold"/><linearGradient id="Gold-48" x1="513.35" y1="286.97" x2="517.87" y2="286.97" xlink:href="#Gold"/><linearGradient id="Gold-49" x1="509.01" y1="350.68" x2="524.11" y2="350.68" xlink:href="#Gold"/><linearGradient id="Gold-50" x1="512.43" y1="350.69" x2="520.7" y2="350.69" xlink:href="#Gold"/><linearGradient id="Gold-51" x1="505.63" y1="361.68" x2="515.58" y2="361.68" xlink:href="#Gold"/><linearGradient id="Gold-52" x1="507.88" y1="361.68" x2="513.33" y2="361.68" xlink:href="#Gold"/><linearGradient id="Gold-53" x1="498.66" y1="366.77" x2="506.92" y2="366.77" xlink:href="#Gold"/><linearGradient id="Gold-54" x1="500.53" y1="366.78" x2="505.05" y2="366.78" xlink:href="#Gold"/><linearGradient id="Gold-55" x1="465.1" y1="342.97" x2="480.21" y2="342.97" xlink:href="#Gold"/><linearGradient id="Gold-56" x1="468.52" y1="342.97" x2="476.79" y2="342.97" xlink:href="#Gold"/><linearGradient id="Gold-57" x1="469.87" y1="355.4" x2="479.83" y2="355.4" xlink:href="#Gold"/><linearGradient id="Gold-58" x1="472.13" y1="355.4" x2="477.57" y2="355.4" xlink:href="#Gold"/><linearGradient id="Gold-59" x1="476.51" y1="362.89" x2="484.77" y2="362.89" xlink:href="#Gold"/><linearGradient id="Gold-60" x1="478.38" y1="362.89" x2="482.9" y2="362.89" xlink:href="#Gold"/><linearGradient id="White_Gold-6" x1="-1573.49" y1="-1416.34" x2="-1571.75" y2="-1416.34" gradientTransform="matrix(-22.31, -3.75, 3.75, -22.31, -29285.36, -37168.5)" xlink:href="#White_Gold"/><linearGradient id="Gold-61" x1="592.51" y1="349.51" x2="625.72" y2="349.51" xlink:href="#Gold"/><linearGradient id="Gold-62" x1="597.83" y1="323.96" x2="606.78" y2="323.96" xlink:href="#Gold"/><linearGradient id="Gold-63" x1="599.85" y1="323.93" x2="604.75" y2="323.93" xlink:href="#Gold"/><linearGradient id="Gold-64" x1="604.36" y1="314.5" x2="610.26" y2="314.5" xlink:href="#Gold"/><linearGradient id="Gold-65" x1="605.7" y1="314.48" x2="608.93" y2="314.48" xlink:href="#Gold"/><linearGradient id="Gold-66" x1="610.08" y1="310.64" x2="614.97" y2="310.64" xlink:href="#Gold"/><linearGradient id="Gold-67" x1="611.19" y1="310.62" x2="613.87" y2="310.62" xlink:href="#Gold"/><linearGradient id="Gold-68" x1="621.85" y1="335.63" x2="630.8" y2="335.63" xlink:href="#Gold"/><linearGradient id="Gold-69" x1="623.88" y1="335.63" x2="628.77" y2="335.63" xlink:href="#Gold"/><linearGradient id="Gold-70" x1="623.93" y1="324" x2="629.82" y2="324" xlink:href="#Gold"/><linearGradient id="Gold-71" x1="625.26" y1="324" x2="628.49" y2="324" xlink:href="#Gold"/><linearGradient id="Gold-72" x1="622.2" y1="316.53" x2="627.09" y2="316.53" xlink:href="#Gold"/><linearGradient id="Gold-73" x1="623.31" y1="316.53" x2="625.99" y2="316.53" xlink:href="#Gold"/><linearGradient id="Gold-74" x1="611.45" y1="375.07" x2="620.4" y2="375.07" xlink:href="#Gold"/><linearGradient id="Gold-75" x1="613.48" y1="375.1" x2="618.38" y2="375.1" xlink:href="#Gold"/><linearGradient id="Gold-76" x1="607.97" y1="384.53" x2="613.87" y2="384.53" xlink:href="#Gold"/><linearGradient id="Gold-77" x1="609.3" y1="384.55" x2="612.53" y2="384.55" xlink:href="#Gold"/><linearGradient id="Gold-78" x1="603.25" y1="388.39" x2="608.15" y2="388.39" xlink:href="#Gold"/><linearGradient id="Gold-79" x1="604.36" y1="388.41" x2="607.04" y2="388.41" xlink:href="#Gold"/><linearGradient id="Gold-80" x1="587.43" y1="363.4" x2="596.38" y2="363.4" xlink:href="#Gold"/><linearGradient id="Gold-81" x1="589.45" y1="363.4" x2="594.35" y2="363.4" xlink:href="#Gold"/><linearGradient id="Gold-82" x1="588.41" y1="375.03" x2="594.3" y2="375.03" xlink:href="#Gold"/><linearGradient id="Gold-83" x1="589.74" y1="375.03" x2="592.97" y2="375.03" xlink:href="#Gold"/><linearGradient id="Gold-84" x1="591.13" y1="382.5" x2="596.03" y2="382.5" xlink:href="#Gold"/><linearGradient id="Gold-85" x1="592.24" y1="382.5" x2="594.92" y2="382.5" xlink:href="#Gold"/><linearGradient id="White_Gold-7" x1="598.17" y1="347.11" x2="621.05" y2="352.13" xlink:href="#White_Gold"/><linearGradient id="Gold-86" x1="196.65" y1="324.99" x2="247.09" y2="324.99" xlink:href="#Gold"/><linearGradient id="Gold-87" x1="232.76" y1="299.23" x2="247.86" y2="299.23" xlink:href="#Gold"/><linearGradient id="Gold-88" x1="229.37" y1="288.24" x2="239.33" y2="288.24" xlink:href="#Gold"/><linearGradient id="Gold-89" x1="222.41" y1="283.14" x2="230.67" y2="283.14" xlink:href="#Gold"/><linearGradient id="Gold-90" x1="188.85" y1="306.94" x2="203.95" y2="306.94" xlink:href="#Gold"/><linearGradient id="Gold-91" x1="193.62" y1="294.51" x2="203.57" y2="294.51" xlink:href="#Gold"/><linearGradient id="Gold-92" x1="200.26" y1="287.03" x2="208.52" y2="287.03" xlink:href="#Gold"/><linearGradient id="Gold-93" x1="195.89" y1="350.74" x2="210.99" y2="350.74" xlink:href="#Gold"/><linearGradient id="Gold-94" x1="204.42" y1="361.74" x2="214.37" y2="361.74" xlink:href="#Gold"/><linearGradient id="Gold-95" x1="213.08" y1="366.83" x2="221.34" y2="366.83" xlink:href="#Gold"/><linearGradient id="Gold-96" x1="239.79" y1="343.04" x2="254.9" y2="343.04" xlink:href="#Gold"/><linearGradient id="Gold-97" x1="240.17" y1="355.46" x2="250.13" y2="355.46" xlink:href="#Gold"/><linearGradient id="Gold-98" x1="235.23" y1="362.95" x2="243.49" y2="362.95" xlink:href="#Gold"/><linearGradient id="White_Gold-8" x1="-1701.82" y1="-1394.79" x2="-1700.09" y2="-1394.79" gradientTransform="matrix(22.31, -3.75, -3.75, -22.31, 32949.58, -37168.47)" xlink:href="#White_Gold"/><linearGradient id="Gold-99" x1="94.28" y1="349.58" x2="127.49" y2="349.58" gradientTransform="translate(81.33 -15.97) rotate(12.98)" xlink:href="#Gold"/><linearGradient id="Gold-100" x1="113.22" y1="324.02" x2="122.17" y2="324.02" xlink:href="#Gold"/><linearGradient id="Gold-101" x1="115.25" y1="323.99" x2="120.15" y2="323.99" xlink:href="#Gold"/><linearGradient id="Gold-102" x1="109.74" y1="314.56" x2="115.64" y2="314.56" xlink:href="#Gold"/><linearGradient id="Gold-103" x1="111.07" y1="314.54" x2="114.3" y2="314.54" xlink:href="#Gold"/><linearGradient id="Gold-104" x1="105.03" y1="310.7" x2="109.92" y2="310.7" xlink:href="#Gold"/><linearGradient id="Gold-105" x1="106.13" y1="310.69" x2="108.81" y2="310.69" xlink:href="#Gold"/><linearGradient id="Gold-106" x1="89.2" y1="335.69" x2="98.15" y2="335.69" xlink:href="#Gold"/><linearGradient id="Gold-107" x1="91.23" y1="335.69" x2="96.12" y2="335.69" xlink:href="#Gold"/><linearGradient id="Gold-108" x1="90.18" y1="324.06" x2="96.07" y2="324.06" xlink:href="#Gold"/><linearGradient id="Gold-109" x1="91.51" y1="324.06" x2="94.74" y2="324.06" xlink:href="#Gold"/><linearGradient id="Gold-110" x1="92.91" y1="316.59" x2="97.8" y2="316.59" xlink:href="#Gold"/><linearGradient id="Gold-111" x1="94.01" y1="316.59" x2="96.69" y2="316.59" xlink:href="#Gold"/><linearGradient id="Gold-112" x1="99.6" y1="375.13" x2="108.55" y2="375.13" xlink:href="#Gold"/><linearGradient id="Gold-113" x1="101.62" y1="375.16" x2="106.52" y2="375.16" xlink:href="#Gold"/><linearGradient id="Gold-114" x1="106.13" y1="384.59" x2="112.03" y2="384.59" xlink:href="#Gold"/><linearGradient id="Gold-115" x1="107.47" y1="384.61" x2="110.7" y2="384.61" xlink:href="#Gold"/><linearGradient id="Gold-116" x1="111.85" y1="388.45" x2="116.75" y2="388.45" xlink:href="#Gold"/><linearGradient id="Gold-117" x1="112.96" y1="388.47" x2="115.64" y2="388.47" xlink:href="#Gold"/><linearGradient id="Gold-118" x1="123.62" y1="363.46" x2="132.57" y2="363.46" xlink:href="#Gold"/><linearGradient id="Gold-119" x1="125.65" y1="363.46" x2="130.55" y2="363.46" xlink:href="#Gold"/><linearGradient id="Gold-120" x1="125.7" y1="375.09" x2="131.59" y2="375.09" xlink:href="#Gold"/><linearGradient id="Gold-121" x1="127.03" y1="375.09" x2="130.26" y2="375.09" xlink:href="#Gold"/><linearGradient id="Gold-122" x1="123.97" y1="382.56" x2="128.87" y2="382.56" xlink:href="#Gold"/><linearGradient id="Gold-123" x1="125.08" y1="382.56" x2="127.76" y2="382.56" xlink:href="#Gold"/><linearGradient id="White_Gold-9" x1="98.51" y1="352.36" x2="120.84" y2="347.34" xlink:href="#White_Gold"/><linearGradient id="Gold-124" x1="380.1" y1="437.33" x2="392.01" y2="437.33" xlink:href="#Gold"/><linearGradient id="Gold-125" x1="395.86" y1="460.54" x2="438.45" y2="460.54" xlink:href="#Gold"/><linearGradient id="Gold-126" x1="302.07" y1="413.45" x2="344.79" y2="413.45" xlink:href="#Gold"/><linearGradient id="White_Gold-10" x1="286.93" y1="453.95" x2="439.08" y2="453.95" xlink:href="#White_Gold"/><linearGradient id="White_Gold-11" x1="286.93" y1="453.95" x2="439.08" y2="453.95" xlink:href="#White_Gold"/><linearGradient id="White_Gold-12" x1="310.62" y1="451.06" x2="384.54" y2="451.06" xlink:href="#White_Gold"/><linearGradient id="White_Gold-13" x1="311.41" y1="462.77" x2="377.21" y2="462.77" xlink:href="#White_Gold"/><linearGradient id="White_Gold-14" x1="281.09" y1="485.36" x2="342.62" y2="485.36" xlink:href="#White_Gold"/><linearGradient id="Gold-127" x1="-1515.62" y1="-1260.06" x2="-1513.88" y2="-1260.06" gradientTransform="matrix(-1.87, 15.49, -15.49, -1.87, -21986.06, 21579.73)" xlink:href="#Gold"/><linearGradient id="Gold-128" x1="341.11" y1="446.34" x2="389.48" y2="446.34" xlink:href="#Gold"/><linearGradient id="Gold-129" x1="-1564.12" y1="-1404.27" x2="-1562.38" y2="-1404.27" gradientTransform="translate(-37769.53 -33811.3) rotate(180) scale(24.39)" xlink:href="#Gold"/><linearGradient id="White_Gold-15" x1="-1557.24" y1="-1113.91" x2="-1555.5" y2="-1113.91" gradientTransform="translate(-1712.27 17431.72) rotate(61.15) scale(8.95)" xlink:href="#White_Gold"/><linearGradient id="White_Gold-16" x1="-1805.74" y1="-1317.51" x2="-1804.01" y2="-1317.51" gradientTransform="translate(26226.64 -236.61) rotate(-37.58) scale(11.6)" xlink:href="#White_Gold"/><linearGradient id="White_Gold-17" x1="-1511.15" y1="-1254.02" x2="-1509.41" y2="-1254.02" gradientTransform="translate(-20762.88 20357.77) rotate(96.88) scale(14.78)" xlink:href="#White_Gold"/><linearGradient id="White_Gold-18" x1="290.34" y1="432.39" x2="298.18" y2="432.39" xlink:href="#White_Gold"/><linearGradient id="White_Gold-19" x1="-1620.08" y1="-1346.57" x2="-1618.34" y2="-1346.57" gradientTransform="translate(-555117.24 -461463.12) rotate(180) scale(343.02 343.02)" xlink:href="#White_Gold"/><linearGradient id="Polished_Brass-3" x1="298.02" y1="440.43" x2="298.02" y2="426.16" xlink:href="#Polished_Brass"/><linearGradient id="Gold-130" x1="-1619.83" y1="-1346.82" x2="-1618.09" y2="-1346.82" gradientTransform="translate(-524664.68 -436298.46) rotate(180) scale(324.26 324.26)" xlink:href="#Gold"/><linearGradient id="White_Gold-20" x1="628.86" y1="548.22" x2="637.75" y2="548.22" xlink:href="#White_Gold"/><linearGradient id="White_Gold-21" x1="605.25" y1="548.22" x2="614.15" y2="548.22" xlink:href="#White_Gold"/><linearGradient id="White_Gold-22" x1="581.64" y1="548.22" x2="590.54" y2="548.22" xlink:href="#White_Gold"/><linearGradient id="White_Gold-23" x1="558.03" y1="548.22" x2="566.93" y2="548.22" xlink:href="#White_Gold"/><linearGradient id="White_Gold-24" x1="534.42" y1="548.22" x2="543.32" y2="548.22" xlink:href="#White_Gold"/><linearGradient id="White_Gold-25" x1="510.81" y1="548.22" x2="519.71" y2="548.22" xlink:href="#White_Gold"/><linearGradient id="White_Gold-26" x1="487.2" y1="548.22" x2="496.1" y2="548.22" xlink:href="#White_Gold"/><linearGradient id="White_Gold-27" x1="463.59" y1="548.22" x2="472.49" y2="548.22" xlink:href="#White_Gold"/><linearGradient id="White_Gold-28" x1="439.98" y1="548.22" x2="448.88" y2="548.22" xlink:href="#White_Gold"/><linearGradient id="White_Gold-29" x1="416.37" y1="548.22" x2="425.27" y2="548.22" xlink:href="#White_Gold"/><linearGradient id="White_Gold-30" x1="392.76" y1="548.22" x2="401.66" y2="548.22" xlink:href="#White_Gold"/><linearGradient id="White_Gold-31" x1="369.15" y1="548.22" x2="378.05" y2="548.22" xlink:href="#White_Gold"/><linearGradient id="White_Gold-32" x1="345.54" y1="548.22" x2="354.44" y2="548.22" xlink:href="#White_Gold"/><linearGradient id="White_Gold-33" x1="321.93" y1="548.22" x2="330.83" y2="548.22" xlink:href="#White_Gold"/><linearGradient id="White_Gold-34" x1="298.32" y1="548.22" x2="307.22" y2="548.22" xlink:href="#White_Gold"/><linearGradient id="White_Gold-35" x1="274.71" y1="548.22" x2="283.61" y2="548.22" xlink:href="#White_Gold"/><linearGradient id="White_Gold-36" x1="251.1" y1="548.22" x2="260" y2="548.22" xlink:href="#White_Gold"/><linearGradient id="White_Gold-37" x1="227.49" y1="548.22" x2="236.39" y2="548.22" xlink:href="#White_Gold"/><linearGradient id="White_Gold-38" x1="203.88" y1="548.22" x2="212.78" y2="548.22" xlink:href="#White_Gold"/><linearGradient id="White_Gold-39" x1="180.27" y1="548.22" x2="189.17" y2="548.22" xlink:href="#White_Gold"/><linearGradient id="White_Gold-40" x1="156.66" y1="548.22" x2="165.56" y2="548.22" xlink:href="#White_Gold"/><linearGradient id="White_Gold-41" x1="133.05" y1="548.22" x2="141.95" y2="548.22" xlink:href="#White_Gold"/><linearGradient id="White_Gold-42" x1="109.44" y1="548.22" x2="118.34" y2="548.22" xlink:href="#White_Gold"/><linearGradient id="White_Gold-43" x1="85.83" y1="548.22" x2="94.73" y2="548.22" xlink:href="#White_Gold"/><linearGradient id="Gold-131" x1="207.92" y1="461.55" x2="216.49" y2="461.55" xlink:href="#Gold"/><linearGradient id="Gold-132" x1="219.26" y1="484.17" x2="249.91" y2="484.17" xlink:href="#Gold"/><linearGradient id="Gold-133" x1="153.72" y1="438.27" x2="182.51" y2="438.27" xlink:href="#Gold"/><linearGradient id="White_Gold-44" x1="140.74" y1="477.63" x2="250.5" y2="477.63" xlink:href="#White_Gold"/><linearGradient id="White_Gold-45" x1="140.74" y1="477.63" x2="250.51" y2="477.63" xlink:href="#White_Gold"/><linearGradient id="White_Gold-46" x1="157.93" y1="474.93" x2="211.12" y2="474.93" xlink:href="#White_Gold"/><linearGradient id="White_Gold-47" x1="158.49" y1="486.34" x2="205.85" y2="486.34" xlink:href="#White_Gold"/><linearGradient id="White_Gold-48" x1="136.54" y1="508.35" x2="181.09" y2="508.35" xlink:href="#White_Gold"/><linearGradient id="Gold-134" x1="-1511.57" y1="-1253.39" x2="-1509.84" y2="-1253.39" gradientTransform="translate(-21475.11 21016.4) rotate(96.88) scale(15.2)" xlink:href="#Gold"/><linearGradient id="Gold-135" x1="179.87" y1="470.33" x2="214.67" y2="470.33" xlink:href="#Gold"/><linearGradient id="Gold-136" x1="-1536.59" y1="-1429.12" x2="-1534.85" y2="-1429.12" gradientTransform="translate(-26760.83 -24617.5) rotate(180) scale(17.55)" xlink:href="#Gold"/><linearGradient id="White_Gold-49" x1="-1552.9" y1="-1082.88" x2="-1551.17" y2="-1082.88" gradientTransform="translate(-1469.67 15708.2) rotate(61.16) scale(8.11)" xlink:href="#White_Gold"/><linearGradient id="White_Gold-50" x1="-1848.23" y1="-1315.71" x2="-1846.49" y2="-1315.71" gradientTransform="translate(22042.53 -365.63) rotate(-37.58) scale(9.66)" xlink:href="#White_Gold"/><linearGradient id="White_Gold-51" x1="-1506.46" y1="-1246.9" x2="-1504.73" y2="-1246.9" gradientTransform="translate(-20183.9 19738.44) rotate(96.88) scale(14.34)" xlink:href="#White_Gold"/><linearGradient id="White_Gold-52" x1="143.33" y1="456.73" x2="148.97" y2="456.73" xlink:href="#White_Gold"/><linearGradient id="Gold-137" x1="547.56" y1="449.81" x2="555.16" y2="449.81" xlink:href="#Gold"/><linearGradient id="Gold-138" x1="557.62" y1="472.42" x2="584.81" y2="472.42" xlink:href="#Gold"/><linearGradient id="Gold-139" x1="499.67" y1="426.53" x2="525.02" y2="426.53" xlink:href="#Gold"/><linearGradient id="White_Gold-53" x1="487.9" y1="465.83" x2="585.39" y2="465.83" xlink:href="#White_Gold"/><linearGradient id="White_Gold-54" x1="487.9" y1="465.83" x2="585.4" y2="465.83" xlink:href="#White_Gold"/><linearGradient id="White_Gold-55" x1="503.2" y1="463.18" x2="550.39" y2="463.18" xlink:href="#White_Gold"/><linearGradient id="White_Gold-56" x1="503.71" y1="474.6" x2="545.72" y2="474.6" xlink:href="#White_Gold"/><linearGradient id="White_Gold-57" x1="484.17" y1="496.61" x2="523.81" y2="496.61" xlink:href="#White_Gold"/><linearGradient id="Gold-140" x1="-1513.05" y1="-1262.77" x2="-1511.32" y2="-1262.77" gradientTransform="translate(-21277.31 21009.44) rotate(96.88) scale(15.2)" xlink:href="#Gold"/><linearGradient id="Gold-141" x1="522.67" y1="458.59" x2="553.55" y2="458.59" xlink:href="#Gold"/><linearGradient id="Gold-142" x1="-1534.69" y1="-1439.86" x2="-1532.96" y2="-1439.86" gradientTransform="translate(-23350.18 -21967.39) rotate(180) scale(15.57)" xlink:href="#Gold"/><linearGradient id="White_Gold-58" x1="-1542.8" y1="-1093.1" x2="-1541.07" y2="-1093.1" gradientTransform="translate(-1194.55 15304.55) rotate(61.15) scale(7.92)" xlink:href="#White_Gold"/><linearGradient id="White_Gold-59" x1="-1847.91" y1="-1304.87" x2="-1846.17" y2="-1304.87" gradientTransform="translate(21146.63 -410.22) rotate(-37.58) scale(9.14)" xlink:href="#White_Gold"/><linearGradient id="White_Gold-60" x1="-1507.88" y1="-1256.87" x2="-1506.14" y2="-1256.87" gradientTransform="translate(-19955.86 19703.84) rotate(96.88) scale(14.33)" xlink:href="#White_Gold"/><linearGradient id="White_Gold-61" x1="490.26" y1="444.99" x2="495.26" y2="444.99" xlink:href="#White_Gold"/></defs><rect class="cls-1" x="171.24" y="182.37" width="4.01" height="232.23"/><rect class="cls-2" x="383.77" y="182.37" width="4.01" height="232.23"/><path class="cls-3" d="M189.22,502.79s1.25-5.24,1.29-5.65h0c3.53-.8,5.73-8.14,6.88-13.53.12-.56.23-1.1.33-1.61-3.55-.34-6.88-3.25-8.5-10.29,6.24,6.24,8.79,1,8.79,0,0-2.59-1.08-8.73,2.64-14.54,6.22-7.91,13.11-5.24,14.56-4.39h0a22,22,0,0,1,2.37-.26c.1-1.82.7-3.76,1.52-3.76a2,2,0,0,1,1.89.43s7.28,5.13,21,.37c.89-1.64,2.72-2.54,4.57-3.36,1.1-11.05,6.64-20.26,14.82-20.26A14.34,14.34,0,0,1,267.3,427a8.38,8.38,0,0,1,1.47-2.23,13.06,13.06,0,0,1,1.79-1.68v6.33a8.46,8.46,0,0,1,1.91,4.4l3.92,5.17v1.59l0,0,.05-.07a.67.67,0,0,1,1.09.79l-.21.3,3.69,4.06.2.24a3.24,3.24,0,0,1-.18,2.42,4.53,4.53,0,0,1-1.44,1.87h0l-.13.09-.1.08a3.18,3.18,0,0,1-2.86.52h0a7.47,7.47,0,0,1-2.25-.78l-2.06-1.09-.09.13a.67.67,0,0,1-1.1-.77c-1.15-.63-2-1.1-2.53-1.44l0,0-.25-.16-.12-.07-.12-.08-.16-.1,0,0-.52-.35L264.13,454s.1.21.25.58h0a5.12,5.12,0,0,1,.21.54l0,0c.07.2.15.41.23.65l.05.12.26.75.05.15.28.89,0,.07c.09.3.18.61.27.94l0,.14c.08.33.17.67.25,1l.05.22c.08.35.15.7.22,1.06l0,.21c.07.38.13.76.19,1.15v.09c0,.21.05.43.08.64s0,.33,0,.5l0,.16c0,.39.05.79.05,1.18v.17c0,.4,0,.8,0,1.2v.11a12.65,12.65,0,0,1-.42,2.41l0,.08a8.18,8.18,0,0,1-.39,1.08l0,.13a9.49,9.49,0,0,1-.54,1l-.07.09a6.42,6.42,0,0,1-.72.93l-.08.08,1.11,3.65,11.13,2.28A27.09,27.09,0,0,1,285,494.69v5.92H278.4l-1.92-2.19,4.15-3.95c-.51-7.72-7.57-11.84-7.57-11.84H255.21L253,479.51c-.76.26-1.22.38-1.22.38a53.12,53.12,0,0,1-12.9,1.91h-.49c-.27,1.05-.59,1.66-.94,1.66s-.68-.63-.94-1.71l-.38,0h-.34l-1-.09h0c-.72-.08-1.44-.17-2.15-.3s-1.37-.28-2-.46a19,19,0,0,1-3.84-1.5l-.12.34c-3.9,12.05-25.38,6.37-25.44,6.35l-1.55,5.78-.77,2.89c0,8.49-9.61,8.06-9.61,8.06h0Zm19.1-27.18a15.41,15.41,0,0,1-3.2,3.7C209.41,480,213.3,479.85,208.32,475.61Z" transform="translate(-61.98 -128.2)"/><path class="cls-3" d="M399.89,512s1.25-5.24,1.29-5.66h0c3.54-.81,5.74-8.15,6.89-13.54.12-.56.23-1.1.32-1.61-3.55-.33-6.88-3.25-8.5-10.28,6.24,6.24,8.79,1,8.79,0,0-2.6-1.08-8.74,2.64-14.55,6.23-7.91,13.11-5.24,14.57-4.39h0c.67-.11,1.48-.19,2.37-.25.11-1.82.7-3.77,1.52-3.77a2,2,0,0,1,1.89.44s7.29,5.12,21,.36c.88-1.63,2.71-2.53,4.57-3.35,1.1-11.05,6.64-20.26,14.81-20.26a14.18,14.18,0,0,1,5.88,1.11,8.47,8.47,0,0,1,1.47-2.23,12.78,12.78,0,0,1,1.8-1.68v6.33a8.34,8.34,0,0,1,1.9,4.39l3.93,5.18v1.59l0,0,.05-.07a.66.66,0,0,1,.93-.15.68.68,0,0,1,.16.94l-.21.3,3.69,4.06.19.25a3.14,3.14,0,0,1-.18,2.42,4.5,4.5,0,0,1-1.44,1.86h0l-.12.09-.11.07a3.2,3.2,0,0,1-2.86.53l0,0a7,7,0,0,1-2.25-.78l-2.06-1.08-.08.13a.68.68,0,0,1-.94.15.67.67,0,0,1-.16-.93c-1.15-.63-2-1.09-2.53-1.43l0,0-.26-.15-.11-.08-.13-.07-.15-.1,0,0a6.07,6.07,0,0,1-.53-.36l-3.11,7.83.25.59h0l.21.54v0l.24.64,0,.13c.09.23.17.48.26.75l.05.15c.09.28.19.57.28.88l0,.08.27.93,0,.15c.09.32.17.66.25,1l0,.22c.08.34.16.7.23,1.06l0,.21c.06.38.13.76.18,1.14v.09c0,.22.06.43.08.65s0,.33.05.5v.15c0,.39.05.79.06,1.19v.17c0,.4,0,.8,0,1.19v.12a11.9,11.9,0,0,1-.41,2.41l0,.07a10.07,10.07,0,0,1-.39,1.09l-.06.12a7.29,7.29,0,0,1-.54,1l-.06.1a7.87,7.87,0,0,1-.72.92l-.08.09,1.1,3.65,11.13,2.27a27,27,0,0,1,8.29,16.39v5.92h-6.56l-1.92-2.19,4.15-3.94c-.52-7.73-7.58-11.84-7.58-11.84H465.88l-2.22-3.13c-.76.26-1.22.38-1.22.38a53.12,53.12,0,0,1-12.9,1.91h-.49c-.26,1.05-.58,1.67-.93,1.67s-.68-.64-.95-1.71l-.38,0-.34,0c-.33,0-.67-.05-1-.09h0c-.71-.07-1.43-.17-2.14-.3a20.89,20.89,0,0,1-2-.46,17.62,17.62,0,0,1-3.83-1.5l-.12.35c-3.91,12-25.39,6.36-25.45,6.35l-1.54,5.77L409.5,504c0,8.5-9.61,8.07-9.61,8.07ZM419,484.85a15,15,0,0,1-3.2,3.69C420.08,489.22,424,489.09,419,484.85Z" transform="translate(-61.98 -128.2)"/><path class="cls-4" d="M108.44,374.33c0,22.34,112.63,40.44,251.56,40.44s251.56-18.1,251.56-40.44S498.93,333.89,360,333.89,108.44,352,108.44,374.33Z" transform="translate(-61.98 -128.2)"/><path class="cls-5" d="M421.28,391.59S397.44,450,397.44,551.32h-16V374.41Z" transform="translate(-61.98 -128.2)"/><path class="cls-6" d="M407.58,411.25c-6.14,25.6-13.67,80.1-13.67,140.07h-7.66V395C386.25,378.3,411.79,381.59,407.58,411.25Z" transform="translate(-61.98 -128.2)"/><path class="cls-6" d="M386.39,393.1c1.83-14,23.68-10.57,21.5,15.36C406.32,390.24,392.15,385.92,386.39,393.1Z" transform="translate(-61.98 -128.2)"/><path class="cls-7" d="M298.72,391.59S322.56,450,322.56,551.32h16V374.41Z" transform="translate(-61.98 -128.2)"/><path class="cls-6" d="M312.42,411.25c6.14,25.6,13.67,80.1,13.67,140.07h7.66V395C333.75,378.3,308.21,381.59,312.42,411.25Z" transform="translate(-61.98 -128.2)"/><path class="cls-6" d="M333.61,393.1c-1.83-14-23.68-10.57-21.5,15.36C313.68,390.24,327.85,385.92,333.61,393.1Z" transform="translate(-61.98 -128.2)"/><rect class="cls-8" x="276.59" y="246.2" width="42.85" height="176.91"/><path class="cls-6" d="M344.56,551.32V394.48a14.18,14.18,0,0,1,28.34,0V551.32Z" transform="translate(-61.98 -128.2)"/><path class="cls-6" d="M358.73,380.81a13.92,13.92,0,0,1,14.17,13.67v6.26a14.18,14.18,0,0,0-28.34,0v-6.26A13.93,13.93,0,0,1,358.73,380.81Z" transform="translate(-61.98 -128.2)"/><rect class="cls-9" x="294.38" y="184.1" width="6.29" height="232.23"/><rect class="cls-10" x="129.12" y="184.1" width="5.66" height="232.23"/><rect class="cls-11" x="473.29" y="184.1" width="5.66" height="232.23"/><rect class="cls-6" x="200.55" y="176.85" width="201.35" height="4.94" rx="2.41"/><path class="cls-12" d="M335.24,184.52s-26.7,2.06-27.52-2.69S332.22,167.42,335.24,184.52Z" transform="translate(-61.98 -128.2)"/><path class="cls-13" d="M334.35,141.67l1,43.06c-17.46-12.06-49.31-9.92-49.31-9.92l7.34-21.92-10.76-23.72C324.91,126.55,334.35,141.67,334.35,141.67Z" transform="translate(-61.98 -128.2)"/><path class="cls-14" d="M360.64,148.94v41.74c-16.3-12-52.92-8.85-52.92-8.85l-2.86-45.3C344.35,133.93,360.64,148.94,360.64,148.94Z" transform="translate(-61.98 -128.2)"/><rect class="cls-15" x="297.92" y="11.76" width="6.39" height="102.22"/><path class="cls-16" d="M370.45,143.94l.08-.11c.14-.21.27-.42.4-.64l.05-.08c.13-.23.25-.47.36-.71l0-.05c.11-.26.22-.51.31-.78v0c.09-.27.17-.54.24-.82v0c.07-.29.12-.58.17-.87h0c0-.3.07-.59.09-.9h0c0-.19,0-.37,0-.55a9.17,9.17,0,0,0-9-9.37,8.65,8.65,0,0,0-5.9,2.33h0q-.35.31-.66.66l0,0c-.19.21-.37.44-.54.67a.36.36,0,0,1-.07.1c-.15.22-.3.44-.43.67l-.09.16c-.12.22-.24.44-.34.67l-.1.21c-.09.21-.17.43-.25.65l-.09.27c-.07.21-.13.43-.18.65s-.05.2-.07.3-.08.46-.11.69,0,.19,0,.28a8.43,8.43,0,0,0-.06,1A9.75,9.75,0,0,0,355,142a9,9,0,0,0,8.26,5.72h0c.3,0,.6,0,.9,0l.29-.05c.2,0,.39,0,.58-.09l.36-.09.48-.13.4-.15.41-.16.42-.2.34-.17.45-.27.27-.18a5,5,0,0,0,.46-.34l.21-.17c.16-.13.31-.27.46-.41l.16-.16a5.23,5.23,0,0,0,.45-.49l.12-.13C370.17,144.32,370.31,144.13,370.45,143.94Z" transform="translate(-61.98 -128.2)"/><polygon class="cls-17" points="259.54 114.52 342.9 114.52 309.22 86.85 293.23 86.85 259.54 114.52"/><polygon class="cls-18" points="203.4 176.85 399.04 176.85 346.77 114.52 255.67 114.52 203.4 176.85"/><polygon class="cls-19" points="311.34 176.85 324.04 176.85 308.74 115.74 302.82 115.74 311.34 176.85"/><polygon class="cls-20" points="343.81 180.25 357.91 180.25 327 114.52 321.08 114.52 343.81 180.25"/><polygon class="cls-20" points="366.2 180.25 382.29 180.25 342.45 114.52 336.54 114.52 366.2 180.25"/><polygon class="cls-19" points="286.88 176.85 272.7 176.85 289.49 115.74 295.4 115.74 286.88 176.85"/><polygon class="cls-21" points="262.55 179.32 248.79 179.32 275.04 114.52 280.96 114.52 262.55 179.32"/><polygon class="cls-20" points="236.01 180.25 219.92 180.25 259.76 114.52 265.67 114.52 236.01 180.25"/><rect class="cls-22" x="248.26" y="112.05" width="105.92" height="4.94" rx="2.41"/><path class="cls-6" d="M340.44,159V170.4L348.33,159h.45l-6.23,9.09-2.11,3v5H336.9V159Zm4.07,9.09,5.49,8h-.57l-5.52-8Z" transform="translate(-61.98 -128.2)"/><path class="cls-6" d="M327.75,171.72a8.69,8.69,0,0,0,3.42-.66,6.13,6.13,0,0,0,2.48-1.8,4.07,4.07,0,0,0,.93-2.64,5.44,5.44,0,0,0-.75-2.5,22,22,0,0,0-2-3c-2.67,2.15-5,3.24-6.88,3.24a1.86,1.86,0,0,1-1.09-.37,1.2,1.2,0,0,1-.52-1,4.09,4.09,0,0,1,1.73-3.09,20.47,20.47,0,0,1,3.32-2.13c.39-.2.75-.4,1.07-.6a7,7,0,0,1-.35-2,4.46,4.46,0,0,1,.4-1.79,4.22,4.22,0,0,1,1.08-1.51,2.48,2.48,0,0,1,1.65-.59,1.25,1.25,0,0,1,.93.39,1.4,1.4,0,0,1,.4,1,3.16,3.16,0,0,1-.49,1.65,7.54,7.54,0,0,1-1.19,1.45,14.69,14.69,0,0,1-1.33,1.12,14.48,14.48,0,0,0,1,1.89,13.32,13.32,0,0,0,1,1.53,16.88,16.88,0,0,0,4.9-5.83,14.37,14.37,0,0,0,1.82-6.57,4.67,4.67,0,0,0-.58-2.29,4.18,4.18,0,0,0-1.7-1.63,5.59,5.59,0,0,0-2.73-.61,4.34,4.34,0,0,0-2.78,1.25l-.07,0c-.2,0-.31-.14-.31-.43a.25.25,0,0,1,.05-.17l.07-.09a5.65,5.65,0,0,1,6.93.35,5.09,5.09,0,0,1,1.33,3.68,14.46,14.46,0,0,1-1.83,6.56,17.39,17.39,0,0,1-5,5.92,26.75,26.75,0,0,1,1.8,2.93,5.86,5.86,0,0,1,.61,2.54,5.2,5.2,0,0,1-.64,2.65,5.7,5.7,0,0,1-1.71,1.88,7.79,7.79,0,0,1-2.38,1.13,9.4,9.4,0,0,1-2.66.38Zm0-8.26a17.34,17.34,0,0,0,2.32-1.3,15.09,15.09,0,0,0,1.65-1.22,19.58,19.58,0,0,1-1.18-1.69,8.46,8.46,0,0,1-.93-1.76l-.69.51a23.88,23.88,0,0,0-2.77,2.19,4,4,0,0,0-1.59,2.58c0,.86.32,1.29,1,1.29A5.18,5.18,0,0,0,327.71,163.46Zm4-8a6.82,6.82,0,0,0,1.09-1.34,2.69,2.69,0,0,0,.44-1.38,1.16,1.16,0,0,0-.34-.84,1.23,1.23,0,0,0-.78-.27,1.46,1.46,0,0,0-1.11.5,3.35,3.35,0,0,0-.72,1.27,5.09,5.09,0,0,0-.26,1.55,4.64,4.64,0,0,0,.37,1.58A10.27,10.27,0,0,0,331.75,155.48Z" transform="translate(-61.98 -128.2)"/><path class="cls-6" d="M321,145.47h-5v19.81h4.1V145.79h.55c3.42-.1,6.21,2.32,6.21,5.35a5.62,5.62,0,0,1-5.34,5.35l-.24.34a6,6,0,0,0,5.93-5.69C327.21,148,324.42,145.47,321,145.47Z" transform="translate(-61.98 -128.2)"/><path class="cls-23" d="M110.19,378.33c165.33-56.49,335.49-56.49,499.62,0l15.71-49.88a923.36,923.36,0,0,0-531,0Z" transform="translate(-61.98 -128.2)"/><path class="cls-24" d="M112.77,367.32c164.49-52.86,317.51-51,494.78.09l12.12-34c-173.86-49.23-344-50.84-519.34-1Z" transform="translate(-61.98 -128.2)"/><ellipse class="cls-25" cx="298.02" cy="184.31" rx="29.63" ry="51.14"/><path class="cls-26" d="M336.55,312.51c0,24.77,10.5,44.84,23.45,44.84s23.45-20.07,23.45-44.84S373,267.67,360,267.67,336.55,287.74,336.55,312.51Z" transform="translate(-61.98 -128.2)"/><ellipse class="cls-27" cx="271.24" cy="157.6" rx="9.08" ry="9.49"/><path class="cls-26" d="M333.23,280.6a5.09,5.09,0,0,1,5,5.2,5.23,5.23,0,0,1-2.43,4.44,3.07,3.07,0,0,0,1.08-2.35,2.92,2.92,0,1,0-3,3,4.5,4.5,0,0,1-.63.07,5.21,5.21,0,0,1,0-10.4Z" transform="translate(-61.98 -128.2)"/><path class="cls-28" d="M332.21,271.52a6,6,0,1,0,6-6.26A6.12,6.12,0,0,0,332.21,271.52Z" transform="translate(-61.98 -128.2)"/><path class="cls-26" d="M338.2,268.09a3.35,3.35,0,0,1,3.27,3.43,3.42,3.42,0,0,1-1.59,2.92,2,2,0,0,0,.71-1.54,1.92,1.92,0,1,0-2,2l-.42,0a3.43,3.43,0,0,1,0-6.85Z" transform="translate(-61.98 -128.2)"/><path class="cls-29" d="M341.53,263.85a5,5,0,1,0,5-5.19A5.08,5.08,0,0,0,341.53,263.85Z" transform="translate(-61.98 -128.2)"/><path class="cls-26" d="M346.49,261a2.78,2.78,0,0,1,2.72,2.85,2.87,2.87,0,0,1-1.32,2.43,1.73,1.73,0,0,0,.59-1.29,1.6,1.6,0,1,0-3.19,0,1.62,1.62,0,0,0,1.55,1.66l-.35,0a2.85,2.85,0,0,1,0-5.69Z" transform="translate(-61.98 -128.2)"/><path class="cls-30" d="M395.85,285.8a9.09,9.09,0,1,1-9.08-9.49A9.29,9.29,0,0,1,395.85,285.8Z" transform="translate(-61.98 -128.2)"/><path class="cls-26" d="M386.77,280.6a5.09,5.09,0,0,0-5,5.2,5.23,5.23,0,0,0,2.43,4.44,3.07,3.07,0,0,1-1.08-2.35,2.92,2.92,0,1,1,3,3,4.5,4.5,0,0,0,.63.07,5.21,5.21,0,0,0,0-10.4Z" transform="translate(-61.98 -128.2)"/><path class="cls-31" d="M387.79,271.52a6,6,0,1,1-6-6.26A6.12,6.12,0,0,1,387.79,271.52Z" transform="translate(-61.98 -128.2)"/><path class="cls-26" d="M381.8,268.09a3.35,3.35,0,0,0-3.27,3.43,3.42,3.42,0,0,0,1.59,2.92,2,2,0,0,1-.71-1.54,1.92,1.92,0,1,1,2,2l.41,0a3.43,3.43,0,0,0,0-6.85Z" transform="translate(-61.98 -128.2)"/><path class="cls-32" d="M378.47,263.85a5,5,0,1,1-5-5.19A5.08,5.08,0,0,1,378.47,263.85Z" transform="translate(-61.98 -128.2)"/><path class="cls-26" d="M373.51,261a2.78,2.78,0,0,0-2.72,2.85,2.87,2.87,0,0,0,1.32,2.43,1.73,1.73,0,0,1-.59-1.29,1.6,1.6,0,1,1,3.19,0,1.62,1.62,0,0,1-1.55,1.66l.35,0a2.85,2.85,0,0,0,0-5.69Z" transform="translate(-61.98 -128.2)"/><path class="cls-33" d="M395.85,339.22a9.09,9.09,0,1,0-9.08,9.49A9.29,9.29,0,0,0,395.85,339.22Z" transform="translate(-61.98 -128.2)"/><path class="cls-26" d="M386.77,344.42a5.09,5.09,0,0,1-5-5.2,5.23,5.23,0,0,1,2.43-4.44,3.07,3.07,0,0,0-1.08,2.35,2.92,2.92,0,1,0,3-3,4.5,4.5,0,0,1,.63-.07,5.21,5.21,0,0,1,0,10.4Z" transform="translate(-61.98 -128.2)"/><path class="cls-34" d="M387.79,353.5a6,6,0,1,0-6,6.26A6.12,6.12,0,0,0,387.79,353.5Z" transform="translate(-61.98 -128.2)"/><path class="cls-26" d="M381.8,356.93a3.35,3.35,0,0,1-3.27-3.43,3.45,3.45,0,0,1,1.59-2.93,2,2,0,0,0-.71,1.55,1.92,1.92,0,1,0,2-2l.41,0a3.43,3.43,0,0,1,0,6.85Z" transform="translate(-61.98 -128.2)"/><path class="cls-35" d="M378.47,361.17a5,5,0,1,0-5,5.19A5.08,5.08,0,0,0,378.47,361.17Z" transform="translate(-61.98 -128.2)"/><path class="cls-26" d="M373.51,364a2.78,2.78,0,0,1-2.72-2.84,2.87,2.87,0,0,1,1.32-2.43,1.73,1.73,0,0,0-.59,1.29,1.6,1.6,0,1,0,1.64-1.66l.35,0a2.84,2.84,0,0,1,0,5.68Z" transform="translate(-61.98 -128.2)"/><path class="cls-36" d="M324.15,339.22a9.09,9.09,0,1,1,9.08,9.49A9.29,9.29,0,0,1,324.15,339.22Z" transform="translate(-61.98 -128.2)"/><path class="cls-26" d="M333.23,344.42a5.09,5.09,0,0,0,5-5.2,5.23,5.23,0,0,0-2.43-4.44,3.07,3.07,0,0,1,1.08,2.35,2.92,2.92,0,1,1-3-3,4.5,4.5,0,0,0-.63-.07,5.21,5.21,0,0,0,0,10.4Z" transform="translate(-61.98 -128.2)"/><path class="cls-37" d="M332.21,353.5a6,6,0,1,1,6,6.26A6.12,6.12,0,0,1,332.21,353.5Z" transform="translate(-61.98 -128.2)"/><path class="cls-26" d="M338.2,356.93a3.35,3.35,0,0,0,3.27-3.43,3.45,3.45,0,0,0-1.59-2.93,2,2,0,0,1,.71,1.55,1.92,1.92,0,1,1-2-2l-.42,0a3.43,3.43,0,0,0,0,6.85Z" transform="translate(-61.98 -128.2)"/><path class="cls-38" d="M341.53,361.17a5,5,0,1,1,5,5.19A5.08,5.08,0,0,1,341.53,361.17Z" transform="translate(-61.98 -128.2)"/><path class="cls-26" d="M346.49,364a2.78,2.78,0,0,0,2.72-2.84,2.87,2.87,0,0,0-1.32-2.43,1.73,1.73,0,0,1,.59,1.29,1.6,1.6,0,1,1-1.64-1.66l-.35,0a2.84,2.84,0,0,0,0,5.68Z" transform="translate(-61.98 -128.2)"/><path class="cls-39" d="M336.43,312.51c0,23.72,10.55,42.95,23.57,42.95s23.57-19.23,23.57-42.95-10.55-43-23.57-43S336.43,288.79,336.43,312.51Z" transform="translate(-61.98 -128.2)"/><path class="cls-40" d="M473.83,320.66c-3.72,23.16,4.14,43.84,17.56,46.2s27.31-14.51,31-37.67-4.14-43.84-17.56-46.2S477.55,297.5,473.83,320.66Z" transform="translate(-61.98 -128.2)"/><path class="cls-26" d="M478.89,321.55c-3.26,20.31,2.71,38.28,13.33,40.15s21.88-13.09,25.14-33.4S514.66,290,504,288.16,482.16,301.24,478.89,321.55Z" transform="translate(-61.98 -128.2)"/><path class="cls-41" d="M472.25,297.87a7.85,7.85,0,0,0,6.19,9.08,7.59,7.59,0,0,0,8.7-6.47,7.87,7.87,0,0,0-6.2-9.09A7.59,7.59,0,0,0,472.25,297.87Z" transform="translate(-61.98 -128.2)"/><path class="cls-42" d="M480.38,294.91a4.36,4.36,0,0,1,.81,8.27,2.56,2.56,0,0,0-.79-4.69,2.44,2.44,0,0,0-2.79,2.08,2.52,2.52,0,0,0,1.92,2.9,4.55,4.55,0,0,1-.52,0,4.31,4.31,0,0,1-3.4-5A4.16,4.16,0,0,1,480.38,294.91Z" transform="translate(-61.98 -128.2)"/><path class="cls-43" d="M480.74,287.32a5.18,5.18,0,0,0,4.08,6,5,5,0,0,0,5.74-4.26,5.18,5.18,0,0,0-4.09-6A5,5,0,0,0,480.74,287.32Z" transform="translate(-61.98 -128.2)"/><path class="cls-44" d="M486.1,285.37a2.88,2.88,0,0,1,.54,5.45,1.7,1.7,0,0,0,.79-1.17,1.66,1.66,0,0,0-1.31-1.92,1.6,1.6,0,0,0-1.84,1.37,1.66,1.66,0,0,0,1.27,1.91l-.35,0A2.83,2.83,0,0,1,483,287.7,2.74,2.74,0,0,1,486.1,285.37Z" transform="translate(-61.98 -128.2)"/><path class="cls-45" d="M489.39,282.37a4.3,4.3,0,0,0,3.39,5,4.16,4.16,0,0,0,4.76-3.54,4.31,4.31,0,0,0-3.39-5A4.16,4.16,0,0,0,489.39,282.37Z" transform="translate(-61.98 -128.2)"/><path class="cls-46" d="M493.84,280.75a2.35,2.35,0,0,1,1.85,2.72,2.3,2.3,0,0,1-1.41,1.8,1.39,1.39,0,0,0-.43-2.56,1.33,1.33,0,0,0-1.53,1.14,1.37,1.37,0,0,0,1.06,1.58l-.29,0a2.36,2.36,0,0,1-1.86-2.72A2.27,2.27,0,0,1,493.84,280.75Z" transform="translate(-61.98 -128.2)"/><path class="cls-47" d="M531,308.18a7.59,7.59,0,0,1-8.69,6.48,7.87,7.87,0,0,1-6.2-9.09,7.59,7.59,0,0,1,8.7-6.47A7.85,7.85,0,0,1,531,308.18Z" transform="translate(-61.98 -128.2)"/><path class="cls-48" d="M524.28,302.62a4.15,4.15,0,0,0-4.76,3.54,4.4,4.4,0,0,0,1.41,4,2.55,2.55,0,0,1-.58-2.08,2.44,2.44,0,0,1,2.79-2.08,2.53,2.53,0,0,1,2,2.92A2.43,2.43,0,0,1,522.4,311a3.28,3.28,0,0,0,.51.15,4.16,4.16,0,0,0,4.77-3.55A4.3,4.3,0,0,0,524.28,302.62Z" transform="translate(-61.98 -128.2)"/><path class="cls-49" d="M526.31,295.31a5,5,0,0,1-5.73,4.27,5.18,5.18,0,0,1-4.08-6,5,5,0,0,1,5.73-4.27A5.18,5.18,0,0,1,526.31,295.31Z" transform="translate(-61.98 -128.2)"/><path class="cls-50" d="M521.86,291.64a2.74,2.74,0,0,0-3.14,2.34,2.9,2.9,0,0,0,.92,2.63,1.73,1.73,0,0,1-.38-1.37,1.6,1.6,0,0,1,1.84-1.37,1.65,1.65,0,0,1,1.31,1.92,1.6,1.6,0,0,1-1.79,1.37l.33.1a2.74,2.74,0,0,0,3.14-2.34A2.84,2.84,0,0,0,521.86,291.64Z" transform="translate(-61.98 -128.2)"/><path class="cls-51" d="M519.69,287.68a4.15,4.15,0,0,1-4.76,3.54,4.3,4.3,0,0,1-3.39-5,4.15,4.15,0,0,1,4.76-3.54A4.31,4.31,0,0,1,519.69,287.68Z" transform="translate(-61.98 -128.2)"/><path class="cls-52" d="M516,284.64a2.27,2.27,0,0,0-2.61,1.94,2.44,2.44,0,0,0,.77,2.18,1.46,1.46,0,0,1-.32-1.14,1.34,1.34,0,0,1,1.53-1.14,1.39,1.39,0,0,1,1.09,1.6,1.34,1.34,0,0,1-1.49,1.14l.28.08a2.27,2.27,0,0,0,2.6-1.94A2.34,2.34,0,0,0,516,284.64Z" transform="translate(-61.98 -128.2)"/><path class="cls-53" d="M524,352a7.86,7.86,0,0,0-6.2-9.09,7.59,7.59,0,0,0-8.69,6.47,7.86,7.86,0,0,0,6.19,9.09A7.59,7.59,0,0,0,524,352Z" transform="translate(-61.98 -128.2)"/><path class="cls-54" d="M515.88,354.94a4.36,4.36,0,0,1-.82-8.27,2.56,2.56,0,0,0,.79,4.69,2.44,2.44,0,0,0,2.79-2.08,2.53,2.53,0,0,0-1.92-2.9,4.73,4.73,0,0,1,.53,0,4.3,4.3,0,0,1,3.39,5A4.15,4.15,0,0,1,515.88,354.94Z" transform="translate(-61.98 -128.2)"/><path class="cls-55" d="M515.51,362.54a5.17,5.17,0,0,0-4.08-6,5,5,0,0,0-5.73,4.26,5.17,5.17,0,0,0,4.08,6A5,5,0,0,0,515.51,362.54Z" transform="translate(-61.98 -128.2)"/><path class="cls-56" d="M510.15,364.48a2.83,2.83,0,0,1-2.23-3.28,2.8,2.8,0,0,1,1.7-2.17,1.69,1.69,0,0,0,.52,3.09,1.6,1.6,0,0,0,1.84-1.37,1.68,1.68,0,0,0-1.27-1.91l.35,0a2.84,2.84,0,0,1,2.23,3.28A2.74,2.74,0,0,1,510.15,364.48Z" transform="translate(-61.98 -128.2)"/><path class="cls-57" d="M506.87,367.49a4.32,4.32,0,0,0-3.39-5,4.17,4.17,0,0,0-4.76,3.55,4.3,4.3,0,0,0,3.39,5A4.16,4.16,0,0,0,506.87,367.49Z" transform="translate(-61.98 -128.2)"/><path class="cls-58" d="M502.42,369.1a2.38,2.38,0,0,1-.45-4.52,1.38,1.38,0,0,0-.65,1,1.37,1.37,0,0,0,1.08,1.59,1.33,1.33,0,0,0,1.53-1.13,1.38,1.38,0,0,0-1.05-1.59l.29,0a2.35,2.35,0,0,1,1.85,2.72A2.26,2.26,0,0,1,502.42,369.1Z" transform="translate(-61.98 -128.2)"/><path class="cls-59" d="M465.21,341.67a7.59,7.59,0,0,1,8.69-6.48,7.86,7.86,0,0,1,6.2,9.09,7.59,7.59,0,0,1-8.69,6.48A7.86,7.86,0,0,1,465.21,341.67Z" transform="translate(-61.98 -128.2)"/><path class="cls-60" d="M472,347.24a4.17,4.17,0,0,0,4.76-3.55,4.42,4.42,0,0,0-1.4-4,2.58,2.58,0,0,1,.57,2.08,2.44,2.44,0,0,1-2.79,2.08,2.53,2.53,0,0,1-2-2.92,2.44,2.44,0,0,1,2.73-2.08c-.17-.05-.33-.11-.51-.15a4.17,4.17,0,0,0-4.76,3.55A4.31,4.31,0,0,0,472,347.24Z" transform="translate(-61.98 -128.2)"/><path class="cls-61" d="M469.94,354.54a5,5,0,0,1,5.73-4.27,5.19,5.19,0,0,1,4.09,6,5,5,0,0,1-5.73,4.27A5.19,5.19,0,0,1,469.94,354.54Z" transform="translate(-61.98 -128.2)"/><path class="cls-62" d="M474.4,358.21a2.75,2.75,0,0,0,3.14-2.34,2.91,2.91,0,0,0-.93-2.63,1.72,1.72,0,0,1,.38,1.38,1.6,1.6,0,0,1-1.84,1.36,1.66,1.66,0,0,1-1.31-1.92,1.61,1.61,0,0,1,1.8-1.37l-.34-.1a2.75,2.75,0,0,0-3.14,2.34A2.84,2.84,0,0,0,474.4,358.21Z" transform="translate(-61.98 -128.2)"/><path class="cls-63" d="M476.57,362.17a4.15,4.15,0,0,1,4.76-3.54,4.3,4.3,0,0,1,3.39,5,4.15,4.15,0,0,1-4.76,3.54A4.3,4.3,0,0,1,476.57,362.17Z" transform="translate(-61.98 -128.2)"/><path class="cls-64" d="M480.27,365.22a2.28,2.28,0,0,0,2.6-1.94,2.4,2.4,0,0,0-.77-2.19,1.4,1.4,0,0,1,.32,1.14,1.33,1.33,0,0,1-1.53,1.14,1.37,1.37,0,0,1-1.08-1.6,1.33,1.33,0,0,1,1.49-1.14l-.28-.08a2.29,2.29,0,0,0-2.61,1.94A2.37,2.37,0,0,0,480.27,365.22Z" transform="translate(-61.98 -128.2)"/><path class="cls-65" d="M478.8,321.53c-3.12,19.46,3,36.75,13.67,38.62s21.86-12.38,25-31.83-3-36.74-13.67-38.62S481.92,302.08,478.8,321.53Z" transform="translate(-61.98 -128.2)"/><path class="cls-66" d="M595.82,343.06c-5.5,20.85-4,40.65,3.34,44.21s17.75-10.45,23.25-31.3,4-40.65-3.34-44.21S601.32,322.21,595.82,343.06Z" transform="translate(-61.98 -128.2)"/><path class="cls-26" d="M598.59,344.4c-4.82,18.29-4,35.4,1.8,38.22s14.43-9.71,19.25-28,4-35.4-1.8-38.23S603.41,326.12,598.59,344.4Z" transform="translate(-61.98 -128.2)"/><path class="cls-67" d="M598.23,322c-1,3.87,0,7.89,2.22,9s4.9-1.16,5.93-5,0-7.9-2.23-9S599.25,318.11,598.23,322Z" transform="translate(-61.98 -128.2)"/><path class="cls-68" d="M603.31,320.12c1.23.6,1.78,2.8,1.22,4.92a4,4,0,0,1-1.95,2.75,2.54,2.54,0,0,0,.94-1.5c.33-1.24,0-2.53-.71-2.88s-1.58.37-1.9,1.61,0,2.49.68,2.87l-.3-.09c-1.23-.6-1.78-2.8-1.22-4.92S602.08,319.52,603.31,320.12Z" transform="translate(-61.98 -128.2)"/><path class="cls-69" d="M604.63,313.19c-.68,2.55,0,5.21,1.46,5.93s3.23-.77,3.91-3.32,0-5.2-1.47-5.92S605.3,310.64,604.63,313.19Z" transform="translate(-61.98 -128.2)"/><path class="cls-70" d="M608,312c.81.39,1.17,1.84.8,3.24a2.61,2.61,0,0,1-1.29,1.81,1.63,1.63,0,0,0,.62-1,1.7,1.7,0,0,0-.47-1.91c-.47-.23-1,.25-1.25,1.07a1.71,1.71,0,0,0,.45,1.88l-.2-.05c-.81-.4-1.17-1.85-.8-3.25S607.17,311.57,608,312Z" transform="translate(-61.98 -128.2)"/><path class="cls-71" d="M610.3,309.56c-.56,2.12,0,4.32,1.22,4.92s2.68-.64,3.24-2.76,0-4.31-1.22-4.91S610.86,307.44,610.3,309.56Z" transform="translate(-61.98 -128.2)"/><path class="cls-72" d="M613.08,308.54c.67.33,1,1.54.67,2.69a2.18,2.18,0,0,1-1.07,1.51,1.42,1.42,0,0,0,.51-.82c.18-.68,0-1.39-.39-1.58s-.86.2-1,.88a1.43,1.43,0,0,0,.38,1.57l-.17-.05c-.67-.33-1-1.53-.66-2.69S612.41,308.21,613.08,308.54Z" transform="translate(-61.98 -128.2)"/><path class="cls-73" d="M630.4,337.61c-1,3.87-3.67,6.12-5.92,5s-3.25-5.12-2.23-9,3.67-6.12,5.92-5S631.42,333.74,630.4,337.61Z" transform="translate(-61.98 -128.2)"/><path class="cls-74" d="M627.34,331.79c-1.24-.6-2.69.64-3.25,2.75a5.82,5.82,0,0,0,.23,3.81,3.53,3.53,0,0,1,0-2c.33-1.24,1.18-2,1.9-1.61s1,1.64.72,2.88-1.15,1.94-1.87,1.63l.27.19c1.24.59,2.69-.64,3.25-2.76S628.57,332.39,627.34,331.79Z" transform="translate(-61.98 -128.2)"/><path class="cls-75" d="M629.56,325.3c-.67,2.55-2.42,4-3.9,3.32s-2.14-3.37-1.47-5.92,2.42-4,3.9-3.32S630.23,322.75,629.56,325.3Z" transform="translate(-61.98 -128.2)"/><path class="cls-76" d="M627.54,321.47c-.81-.39-1.77.42-2.14,1.82a3.82,3.82,0,0,0,.15,2.51,2.37,2.37,0,0,1,0-1.3c.22-.82.78-1.3,1.26-1.07s.68,1.09.47,1.9-.76,1.28-1.23,1.07l.18.13c.81.39,1.77-.42,2.13-1.82S628.35,321.87,627.54,321.47Z" transform="translate(-61.98 -128.2)"/><path class="cls-77" d="M626.87,317.61c-.55,2.12-2,3.35-3.24,2.75s-1.77-2.8-1.21-4.91,2-3.35,3.24-2.76S627.43,315.49,626.87,317.61Z" transform="translate(-61.98 -128.2)"/><path class="cls-78" d="M625.2,314.43c-.67-.33-1.47.35-1.78,1.51a3.14,3.14,0,0,0,.13,2.08,2,2,0,0,1,0-1.08c.18-.68.65-1.07,1-.88s.57.9.39,1.58-.63,1.05-1,.89l.15.1c.68.32,1.47-.35,1.78-1.51S625.87,314.76,625.2,314.43Z" transform="translate(-61.98 -128.2)"/><path class="cls-79" d="M620,377.05c1-3.87,0-7.89-2.22-9s-4.91,1.16-5.93,5,0,7.89,2.23,9S619,380.92,620,377.05Z" transform="translate(-61.98 -128.2)"/><path class="cls-80" d="M614.92,378.91c-1.24-.6-1.78-2.8-1.22-4.92a4,4,0,0,1,1.95-2.75,2.54,2.54,0,0,0-.94,1.5c-.33,1.24,0,2.53.71,2.88s1.58-.37,1.9-1.61,0-2.49-.68-2.87l.3.09c1.23.6,1.78,2.8,1.22,4.92S616.15,379.51,614.92,378.91Z" transform="translate(-61.98 -128.2)"/><path class="cls-81" d="M613.6,385.84c.67-2.55,0-5.21-1.47-5.93s-3.22.77-3.9,3.32,0,5.2,1.47,5.92S612.93,388.39,613.6,385.84Z" transform="translate(-61.98 -128.2)"/><path class="cls-82" d="M610.25,387.06c-.81-.39-1.17-1.85-.8-3.24a2.63,2.63,0,0,1,1.28-1.81,1.72,1.72,0,0,0-.62,1c-.21.82,0,1.67.47,1.9s1-.24,1.26-1.06a1.71,1.71,0,0,0-.45-1.88l.19.05c.82.4,1.17,1.85.81,3.25S611.06,387.46,610.25,387.06Z" transform="translate(-61.98 -128.2)"/><path class="cls-83" d="M607.93,389.47c.56-2.12,0-4.32-1.22-4.92s-2.68.64-3.24,2.76,0,4.31,1.22,4.91S607.37,391.59,607.93,389.47Z" transform="translate(-61.98 -128.2)"/><path class="cls-84" d="M605.15,390.49c-.68-.33-1-1.54-.67-2.7a2.18,2.18,0,0,1,1.07-1.5,1.48,1.48,0,0,0-.52.82c-.17.68,0,1.39.4,1.58s.86-.2,1-.88a1.45,1.45,0,0,0-.38-1.57l.17.05c.67.33,1,1.53.66,2.69S605.82,390.81,605.15,390.49Z" transform="translate(-61.98 -128.2)"/><path class="cls-85" d="M587.83,361.42c1-3.87,3.67-6.12,5.92-5s3.25,5.12,2.23,9-3.67,6.12-5.92,5S586.81,365.29,587.83,361.42Z" transform="translate(-61.98 -128.2)"/><path class="cls-86" d="M590.89,367.24c1.23.6,2.69-.64,3.24-2.76a5.74,5.74,0,0,0-.22-3.8,3.63,3.63,0,0,1,0,2c-.33,1.24-1.18,2-1.9,1.61s-1-1.64-.72-2.88,1.15-1.94,1.87-1.63l-.28-.19c-1.23-.59-2.68.64-3.24,2.76S589.66,366.64,590.89,367.24Z" transform="translate(-61.98 -128.2)"/><path class="cls-87" d="M588.67,373.73c.67-2.55,2.42-4,3.9-3.32s2.14,3.37,1.47,5.92-2.42,4-3.9,3.32S588,376.28,588.67,373.73Z" transform="translate(-61.98 -128.2)"/><path class="cls-88" d="M590.69,377.56c.81.39,1.77-.42,2.13-1.82a3.76,3.76,0,0,0-.14-2.51,2.29,2.29,0,0,1,0,1.3c-.21.82-.77,1.3-1.25,1.07s-.68-1.08-.47-1.9.76-1.28,1.23-1.07l-.18-.13c-.81-.39-1.77.42-2.14,1.82S589.88,377.16,590.69,377.56Z" transform="translate(-61.98 -128.2)"/><path class="cls-89" d="M591.35,381.42c.56-2.12,2-3.35,3.24-2.75s1.78,2.8,1.22,4.91-2,3.35-3.24,2.76S590.8,383.54,591.35,381.42Z" transform="translate(-61.98 -128.2)"/><path class="cls-90" d="M593,384.6c.67.33,1.47-.35,1.77-1.51a3.14,3.14,0,0,0-.12-2.08,2,2,0,0,1,0,1.08c-.18.68-.65,1.07-1,.88s-.57-.9-.4-1.58.63-1.05,1-.88l-.14-.11c-.68-.32-1.47.35-1.78,1.51S592.36,384.27,593,384.6Z" transform="translate(-61.98 -128.2)"/><path class="cls-91" d="M598.54,344.38c-4.62,17.51-3.63,34,2.21,36.85s14.32-9.06,18.94-26.58,3.63-34-2.21-36.85S603.16,326.86,598.54,344.38Z" transform="translate(-61.98 -128.2)"/><path class="cls-92" d="M246.17,320.72c3.72,23.16-4.14,43.84-17.56,46.2s-27.31-14.51-31-37.67,4.14-43.84,17.56-46.19S242.45,297.57,246.17,320.72Z" transform="translate(-61.98 -128.2)"/><path class="cls-26" d="M241.11,321.61c3.26,20.31-2.71,38.28-13.33,40.15s-21.88-13.09-25.14-33.4,2.7-38.28,13.33-40.14S237.84,301.3,241.11,321.61Z" transform="translate(-61.98 -128.2)"/><path class="cls-93" d="M247.75,297.93a7.87,7.87,0,0,1-6.19,9.09,7.6,7.6,0,0,1-8.7-6.48,7.87,7.87,0,0,1,6.2-9.09A7.59,7.59,0,0,1,247.75,297.93Z" transform="translate(-61.98 -128.2)"/><path class="cls-26" d="M239.62,295a4.31,4.31,0,0,0-3.39,5,4.25,4.25,0,0,0,2.58,3.29,2.56,2.56,0,0,1,.79-4.69,2.44,2.44,0,0,1,2.79,2.08,2.52,2.52,0,0,1-1.92,2.9,3,3,0,0,0,.52,0,4.31,4.31,0,0,0,3.4-5A4.17,4.17,0,0,0,239.62,295Z" transform="translate(-61.98 -128.2)"/><path class="cls-94" d="M239.26,287.38a5.19,5.19,0,0,1-4.08,6,5,5,0,0,1-5.74-4.27,5.19,5.19,0,0,1,4.09-6A5,5,0,0,1,239.26,287.38Z" transform="translate(-61.98 -128.2)"/><path class="cls-26" d="M233.9,285.43a2.88,2.88,0,0,0-.54,5.45,1.68,1.68,0,0,1-.79-1.17,1.66,1.66,0,0,1,1.31-1.92,1.6,1.6,0,0,1,1.84,1.37,1.65,1.65,0,0,1-1.27,1.91l.35,0a2.82,2.82,0,0,0,2.24-3.27A2.75,2.75,0,0,0,233.9,285.43Z" transform="translate(-61.98 -128.2)"/><path class="cls-95" d="M230.61,282.43a4.3,4.3,0,0,1-3.39,5,4.16,4.16,0,0,1-4.76-3.54,4.31,4.31,0,0,1,3.39-5A4.16,4.16,0,0,1,230.61,282.43Z" transform="translate(-61.98 -128.2)"/><path class="cls-26" d="M226.16,280.81a2.35,2.35,0,0,0-1.85,2.72,2.3,2.3,0,0,0,1.41,1.8,1.35,1.35,0,0,1-.66-1,1.39,1.39,0,0,1,1.09-1.6,1.33,1.33,0,0,1,1.53,1.14,1.37,1.37,0,0,1-1.06,1.58l.29,0a2.36,2.36,0,0,0,1.86-2.72A2.27,2.27,0,0,0,226.16,280.81Z" transform="translate(-61.98 -128.2)"/><path class="cls-96" d="M189,308.25a7.59,7.59,0,0,0,8.69,6.47,7.87,7.87,0,0,0,6.2-9.09,7.59,7.59,0,0,0-8.7-6.47A7.86,7.86,0,0,0,189,308.25Z" transform="translate(-61.98 -128.2)"/><path class="cls-26" d="M195.72,302.68a4.15,4.15,0,0,1,4.76,3.54,4.39,4.39,0,0,1-1.41,4,2.55,2.55,0,0,0,.58-2.08,2.44,2.44,0,0,0-2.79-2.08,2.53,2.53,0,0,0-2,2.92,2.43,2.43,0,0,0,2.73,2.08,3.28,3.28,0,0,1-.51.15,4.16,4.16,0,0,1-4.77-3.55A4.3,4.3,0,0,1,195.72,302.68Z" transform="translate(-61.98 -128.2)"/><path class="cls-97" d="M193.69,295.37a5,5,0,0,0,5.73,4.27,5.18,5.18,0,0,0,4.08-6,5,5,0,0,0-5.73-4.27A5.18,5.18,0,0,0,193.69,295.37Z" transform="translate(-61.98 -128.2)"/><path class="cls-26" d="M198.14,291.7a2.74,2.74,0,0,1,3.14,2.34,2.9,2.9,0,0,1-.92,2.63,1.73,1.73,0,0,0,.38-1.37,1.61,1.61,0,0,0-1.84-1.37,1.65,1.65,0,0,0-1.31,1.92,1.6,1.6,0,0,0,1.79,1.37l-.33.1a2.74,2.74,0,0,1-3.14-2.34A2.84,2.84,0,0,1,198.14,291.7Z" transform="translate(-61.98 -128.2)"/><path class="cls-98" d="M200.31,287.74a4.17,4.17,0,0,0,4.76,3.55,4.31,4.31,0,0,0,3.39-5,4.16,4.16,0,0,0-4.76-3.54A4.32,4.32,0,0,0,200.31,287.74Z" transform="translate(-61.98 -128.2)"/><path class="cls-26" d="M204,284.7a2.27,2.27,0,0,1,2.61,1.94,2.43,2.43,0,0,1-.77,2.18,1.46,1.46,0,0,0,.32-1.14,1.35,1.35,0,0,0-1.53-1.14,1.39,1.39,0,0,0-1.09,1.6,1.34,1.34,0,0,0,1.49,1.14l-.28.08a2.26,2.26,0,0,1-2.6-1.94A2.34,2.34,0,0,1,204,284.7Z" transform="translate(-61.98 -128.2)"/><path class="cls-99" d="M196,352.05a7.86,7.86,0,0,1,6.2-9.09,7.59,7.59,0,0,1,8.69,6.47,7.86,7.86,0,0,1-6.19,9.09A7.59,7.59,0,0,1,196,352.05Z" transform="translate(-61.98 -128.2)"/><path class="cls-26" d="M204.12,355a4.36,4.36,0,0,0,.82-8.27,2.56,2.56,0,0,1-.79,4.69,2.44,2.44,0,0,1-2.79-2.08,2.53,2.53,0,0,1,1.92-2.9,4.73,4.73,0,0,0-.53,0,4.3,4.3,0,0,0-3.39,5A4.15,4.15,0,0,0,204.12,355Z" transform="translate(-61.98 -128.2)"/><path class="cls-100" d="M204.49,362.6a5.17,5.17,0,0,1,4.08-6,5,5,0,0,1,5.73,4.27,5.18,5.18,0,0,1-4.08,6A5,5,0,0,1,204.49,362.6Z" transform="translate(-61.98 -128.2)"/><path class="cls-26" d="M209.85,364.54a2.83,2.83,0,0,0,2.23-3.27,2.77,2.77,0,0,0-1.7-2.17,1.62,1.62,0,0,1,.79,1.16,1.67,1.67,0,0,1-1.31,1.93,1.61,1.61,0,0,1-1.84-1.37,1.67,1.67,0,0,1,1.27-1.91l-.35,0a2.84,2.84,0,0,0-2.23,3.28A2.74,2.74,0,0,0,209.85,364.54Z" transform="translate(-61.98 -128.2)"/><path class="cls-101" d="M213.13,367.55a4.3,4.3,0,0,1,3.39-5,4.15,4.15,0,0,1,4.76,3.54,4.3,4.3,0,0,1-3.39,5A4.15,4.15,0,0,1,213.13,367.55Z" transform="translate(-61.98 -128.2)"/><path class="cls-26" d="M217.58,369.16a2.38,2.38,0,0,0,.45-4.52,1.41,1.41,0,0,1-.43,2.57,1.34,1.34,0,0,1-1.53-1.14,1.39,1.39,0,0,1,1.05-1.59l-.29,0a2.35,2.35,0,0,0-1.85,2.72A2.26,2.26,0,0,0,217.58,369.16Z" transform="translate(-61.98 -128.2)"/><path class="cls-102" d="M254.79,341.73a7.59,7.59,0,0,0-8.69-6.48,7.86,7.86,0,0,0-6.2,9.09,7.59,7.59,0,0,0,8.69,6.48A7.86,7.86,0,0,0,254.79,341.73Z" transform="translate(-61.98 -128.2)"/><path class="cls-26" d="M248,347.3a4.17,4.17,0,0,1-4.76-3.55,4.42,4.42,0,0,1,1.4-4,2.58,2.58,0,0,0-.57,2.08,2.44,2.44,0,0,0,2.79,2.08,2.53,2.53,0,0,0,2-2.92,2.44,2.44,0,0,0-2.73-2.08c.17-.05.33-.11.51-.15a4.17,4.17,0,0,1,4.76,3.55A4.31,4.31,0,0,1,248,347.3Z" transform="translate(-61.98 -128.2)"/><path class="cls-103" d="M250.06,354.6a5,5,0,0,0-5.73-4.27,5.19,5.19,0,0,0-4.09,6,5,5,0,0,0,5.73,4.27A5.19,5.19,0,0,0,250.06,354.6Z" transform="translate(-61.98 -128.2)"/><path class="cls-26" d="M245.6,358.27a2.75,2.75,0,0,1-3.14-2.34,2.91,2.91,0,0,1,.93-2.63,1.72,1.72,0,0,0-.38,1.38,1.61,1.61,0,0,0,1.84,1.37,1.68,1.68,0,0,0,1.31-1.93,1.61,1.61,0,0,0-1.8-1.37l.34-.1a2.75,2.75,0,0,1,3.14,2.34A2.84,2.84,0,0,1,245.6,358.27Z" transform="translate(-61.98 -128.2)"/><path class="cls-104" d="M243.43,362.23a4.15,4.15,0,0,0-4.76-3.54,4.3,4.3,0,0,0-3.39,5A4.15,4.15,0,0,0,240,367.2,4.3,4.3,0,0,0,243.43,362.23Z" transform="translate(-61.98 -128.2)"/><path class="cls-26" d="M239.73,365.28a2.28,2.28,0,0,1-2.6-1.94,2.43,2.43,0,0,1,.76-2.19,1.44,1.44,0,0,0-.31,1.14,1.33,1.33,0,0,0,1.53,1.14,1.37,1.37,0,0,0,1.08-1.6,1.33,1.33,0,0,0-1.49-1.14l.28-.08a2.29,2.29,0,0,1,2.61,1.94A2.37,2.37,0,0,1,239.73,365.28Z" transform="translate(-61.98 -128.2)"/><path class="cls-105" d="M241.2,321.6c3.12,19.45-3,36.74-13.67,38.61s-21.86-12.38-25-31.83,3-36.74,13.67-38.62S238.08,302.14,241.2,321.6Z" transform="translate(-61.98 -128.2)"/><ellipse class="cls-106" cx="110.89" cy="349.58" rx="14.46" ry="39.17" transform="translate(-137.65 -94.37) rotate(-12.98)"/><path class="cls-26" d="M121.41,344.47c4.82,18.28,4,35.39-1.8,38.22s-14.43-9.72-19.25-28-4-35.4,1.8-38.22S116.59,326.18,121.41,344.47Z" transform="translate(-61.98 -128.2)"/><path class="cls-107" d="M121.77,322c1,3.87,0,7.9-2.22,9s-4.9-1.16-5.93-5,0-7.89,2.23-9S120.75,318.17,121.77,322Z" transform="translate(-61.98 -128.2)"/><path class="cls-108" d="M116.69,320.18c-1.23.6-1.78,2.81-1.22,4.92a4.05,4.05,0,0,0,2,2.76,2.6,2.6,0,0,1-.94-1.51c-.33-1.24,0-2.53.71-2.88s1.58.37,1.9,1.62,0,2.48-.68,2.86l.3-.09c1.23-.6,1.78-2.8,1.22-4.92S117.92,319.59,116.69,320.18Z" transform="translate(-61.98 -128.2)"/><path class="cls-109" d="M115.37,313.25c.68,2.55,0,5.21-1.46,5.93s-3.23-.77-3.91-3.32,0-5.2,1.47-5.92S114.7,310.7,115.37,313.25Z" transform="translate(-61.98 -128.2)"/><path class="cls-110" d="M112,312c-.81.39-1.17,1.85-.8,3.24a2.65,2.65,0,0,0,1.29,1.82,1.69,1.69,0,0,1-.62-1c-.22-.82,0-1.67.47-1.9s1,.24,1.25,1.06a1.73,1.73,0,0,1-.45,1.89l.2-.06c.81-.4,1.17-1.85.8-3.25S112.83,311.64,112,312Z" transform="translate(-61.98 -128.2)"/><path class="cls-111" d="M109.7,309.62c.56,2.12,0,4.32-1.22,4.92s-2.68-.64-3.24-2.75,0-4.32,1.22-4.92S109.14,307.5,109.7,309.62Z" transform="translate(-61.98 -128.2)"/><path class="cls-112" d="M106.92,308.6c-.67.33-1,1.54-.67,2.7a2.18,2.18,0,0,0,1.07,1.5,1.42,1.42,0,0,1-.51-.82c-.18-.68,0-1.39.39-1.58s.86.21,1,.88a1.43,1.43,0,0,1-.38,1.57l.17-.05c.67-.33,1-1.53.66-2.69S107.59,308.28,106.92,308.6Z" transform="translate(-61.98 -128.2)"/><path class="cls-113" d="M89.6,337.67c1,3.87,3.67,6.12,5.92,5s3.25-5.12,2.23-9-3.67-6.12-5.92-5S88.58,333.8,89.6,337.67Z" transform="translate(-61.98 -128.2)"/><path class="cls-114" d="M92.66,331.85c1.24-.6,2.69.64,3.25,2.76a5.8,5.8,0,0,1-.23,3.8,3.53,3.53,0,0,0,0-2c-.33-1.24-1.18-2-1.9-1.61s-1,1.64-.72,2.88,1.15,1.94,1.87,1.63l-.27.19c-1.24.59-2.69-.64-3.25-2.76S91.43,332.45,92.66,331.85Z" transform="translate(-61.98 -128.2)"/><path class="cls-115" d="M90.44,325.36c.67,2.56,2.42,4,3.9,3.32s2.14-3.37,1.47-5.92-2.42-4-3.9-3.32S89.77,322.81,90.44,325.36Z" transform="translate(-61.98 -128.2)"/><path class="cls-116" d="M92.46,321.53c.81-.39,1.77.42,2.14,1.82a3.82,3.82,0,0,1-.15,2.51,2.37,2.37,0,0,0,0-1.3c-.22-.82-.78-1.3-1.26-1.07s-.68,1.09-.47,1.9.76,1.28,1.23,1.08l-.18.12c-.81.39-1.77-.42-2.13-1.82S91.65,321.93,92.46,321.53Z" transform="translate(-61.98 -128.2)"/><path class="cls-117" d="M93.13,317.67c.55,2.12,2,3.35,3.24,2.75s1.77-2.8,1.21-4.91-2-3.35-3.24-2.75S92.57,315.55,93.13,317.67Z" transform="translate(-61.98 -128.2)"/><path class="cls-118" d="M94.8,314.49c.67-.33,1.47.35,1.78,1.51a3.14,3.14,0,0,1-.13,2.08,2,2,0,0,0,0-1.08c-.18-.68-.65-1.07-1-.88s-.57.9-.39,1.58.63,1.06,1,.89l-.15.1c-.68.33-1.47-.35-1.78-1.51S94.13,314.82,94.8,314.49Z" transform="translate(-61.98 -128.2)"/><path class="cls-119" d="M100,377.11c-1-3.87,0-7.89,2.22-9s4.91,1.16,5.93,5,0,7.9-2.23,9S101,381,100,377.11Z" transform="translate(-61.98 -128.2)"/><path class="cls-120" d="M105.08,379c1.24-.6,1.78-2.8,1.22-4.92a4,4,0,0,0-2-2.75,2.54,2.54,0,0,1,.94,1.5c.33,1.24,0,2.53-.71,2.88s-1.58-.37-1.9-1.61,0-2.49.68-2.86l-.3.08c-1.23.6-1.78,2.81-1.22,4.92S103.85,379.57,105.08,379Z" transform="translate(-61.98 -128.2)"/><path class="cls-121" d="M106.4,385.9c-.67-2.55,0-5.2,1.47-5.92s3.22.76,3.9,3.31,0,5.2-1.47,5.92S107.07,388.45,106.4,385.9Z" transform="translate(-61.98 -128.2)"/><path class="cls-122" d="M109.75,387.12c.81-.39,1.17-1.84.8-3.24a2.63,2.63,0,0,0-1.28-1.81,2,2,0,0,1,.15,2.89c-.48.23-1-.25-1.26-1.07a1.71,1.71,0,0,1,.45-1.88l-.19.05c-.82.4-1.17,1.85-.81,3.25S108.94,387.52,109.75,387.12Z" transform="translate(-61.98 -128.2)"/><path class="cls-123" d="M112.07,389.53c-.56-2.12,0-4.32,1.22-4.91s2.68.63,3.24,2.75,0,4.32-1.22,4.91S112.63,391.65,112.07,389.53Z" transform="translate(-61.98 -128.2)"/><path class="cls-124" d="M114.85,390.55c.68-.33,1-1.53.67-2.69a2.21,2.21,0,0,0-1.07-1.51,1.48,1.48,0,0,1,.52.82c.17.68,0,1.39-.4,1.58s-.86-.2-1-.88a1.45,1.45,0,0,1,.38-1.57l-.17.05c-.67.33-1,1.53-.66,2.69S114.18,390.88,114.85,390.55Z" transform="translate(-61.98 -128.2)"/><path class="cls-125" d="M132.17,361.48c-1-3.87-3.67-6.12-5.92-5s-3.25,5.12-2.23,9,3.67,6.12,5.92,5S133.19,365.35,132.17,361.48Z" transform="translate(-61.98 -128.2)"/><path class="cls-126" d="M129.11,367.3c-1.23.6-2.69-.64-3.24-2.75a5.76,5.76,0,0,1,.22-3.81,3.63,3.63,0,0,0,0,2c.33,1.24,1.18,2,1.9,1.61s1-1.64.72-2.88-1.15-1.94-1.87-1.63l.28-.18c1.23-.6,2.68.63,3.24,2.75S130.34,366.7,129.11,367.3Z" transform="translate(-61.98 -128.2)"/><path class="cls-127" d="M131.33,373.79c-.67-2.55-2.42-4-3.9-3.32s-2.14,3.37-1.47,5.93,2.42,4,3.9,3.31S132,376.34,131.33,373.79Z" transform="translate(-61.98 -128.2)"/><path class="cls-128" d="M129.31,377.62c-.81.39-1.77-.42-2.13-1.81a3.75,3.75,0,0,1,.14-2.51,2.25,2.25,0,0,0,0,1.29c.21.82.77,1.3,1.25,1.07s.68-1.08.47-1.9-.76-1.28-1.23-1.07l.18-.13c.81-.39,1.77.42,2.14,1.82S130.12,377.23,129.31,377.62Z" transform="translate(-61.98 -128.2)"/><path class="cls-129" d="M128.65,381.48c-.56-2.12-2-3.35-3.24-2.75s-1.78,2.8-1.22,4.92,2,3.34,3.24,2.75S129.2,383.6,128.65,381.48Z" transform="translate(-61.98 -128.2)"/><path class="cls-130" d="M127,384.66c-.67.33-1.47-.35-1.77-1.5a3.17,3.17,0,0,1,.12-2.09,2,2,0,0,0,0,1.08c.18.68.65,1.08,1,.88s.57-.89.4-1.58-.63-1.05-1-.88l.14-.11c.68-.32,1.47.35,1.78,1.51S127.64,384.33,127,384.66Z" transform="translate(-61.98 -128.2)"/><path class="cls-131" d="M121.46,344.44c4.62,17.52,3.63,34-2.21,36.85s-14.32-9.06-18.94-26.58-3.63-34,2.21-36.85S116.84,326.92,121.46,344.44Z" transform="translate(-61.98 -128.2)"/><path class="cls-132" d="M380.1,438A6,6,0,0,0,392,438c0-3.2-1.05-7.08-2.53-7.08C386.88,430.5,383.22,438.87,380.1,438Z" transform="translate(-61.98 -128.2)"/><path class="cls-133" d="M395.86,437.49c2.37-1.39,13.66-5.78,23.87,7.18,6.1,9.52,4.32,19.58,4.32,23.83,0,1.68,4.18,10.23,14.4,0-7.43,32.34-37,11.71-34.47-7Z" transform="translate(-61.98 -128.2)"/><path class="cls-6" d="M398.32,438.86s21.75-2.86,19.76,26.52C418.84,440.6,398.32,438.86,398.32,438.86Z" transform="translate(-61.98 -128.2)"/><path class="cls-6" d="M410.85,439.32s17.38,9.86,10.7,32.88C425.27,450.94,410.85,439.32,410.85,439.32Z" transform="translate(-61.98 -128.2)"/><path class="cls-6" d="M415,454.52a20.66,20.66,0,0,1,.79,13.16C415.68,462,415,454.52,415,454.52Z" transform="translate(-61.98 -128.2)"/><path class="cls-6" d="M431.39,481s-15.16,6.21-19.31-15.39C416.24,483.65,431.39,481,431.39,481Z" transform="translate(-61.98 -128.2)"/><path class="cls-6" d="M422.25,483.06s-14.42-3.82-14-21.71C409.63,477.41,422.25,483.06,422.25,483.06Z" transform="translate(-61.98 -128.2)"/><path class="cls-6" d="M416.4,472.86a15.44,15.44,0,0,1-3.08-9.35C414.44,467.57,416.4,472.86,416.4,472.86Z" transform="translate(-61.98 -128.2)"/><path class="cls-6" d="M433.64,475.67s-5.9,4.61-9.79-1.95C427.88,477.25,433.64,475.67,433.64,475.67Z" transform="translate(-61.98 -128.2)"/><path class="cls-134" d="M320.18,393.52c15,0,24.61,19,24.61,39.86L302.07,406.5S302.82,393.52,320.18,393.52Z" transform="translate(-61.98 -128.2)"/><path class="cls-6" d="M310.07,398.77s21.24-9.92,27.15,24.36C331.31,394.49,310.07,398.77,310.07,398.77Z" transform="translate(-61.98 -128.2)"/><path class="cls-6" d="M322.88,395.47s20.25,6,19.69,34.42C340.61,404.39,322.88,395.47,322.88,395.47Z" transform="translate(-61.98 -128.2)"/><path class="cls-6" d="M331.13,411.63a26.64,26.64,0,0,1,4.35,14.85C333.9,420,331.13,411.63,331.13,411.63Z" transform="translate(-61.98 -128.2)"/><path class="cls-135" d="M336,481.91s25.3,7.59,41-.84c5.9,20.52,41.89,11,41.89,11l3.8,14.2c0,13.92,15.74,13.21,15.74,13.21s-2.05-8.59-2.11-9.27c-9.27-2.11-12.93-31.63-12.93-31.63s-32.05,9-15.18-4.5-2.81-34.87-12.37-36.55-35.12,1-45.41-4.11c-12.11-5.69-20.17-21.38-22.55-27a12.66,12.66,0,0,0-4-5.15c-2.82-2.15-7.36-4.37-12.79-2.5.58-5.06-5.94-9.84-5.94-9.84v13.46L295.65,415v2.6L288,426c-2,1.62,1.1,12.46,11.09,7.25s11.5-6.51,11.5-6.51l5.11,12.83s-9.28,20.66-.64,29.94S336,481.91,336,481.91Z" transform="translate(-61.98 -128.2)"/><path class="cls-136" d="M299.13,433.21c9.34-4.88,11.28-6.34,11.47-6.5l0,0,5.11,12.84s-9.29,20.67-.64,29.94S336,481.92,336,481.92s25.19,7.55,40.94-.8l.12-.06c5.89,20.53,41.87,11,41.87,11l3.81,14.21c0,13.91,15.75,13.21,15.75,13.21s-2-8.58-2.11-9.27c-9.29-2.1-12.94-31.63-12.94-31.63s-32.06,9-15.18-4.51-2.81-34.85-12.37-36.55-35.13,1-45.41-4.1c-12.1-5.69-20.18-21.38-22.54-27a12.94,12.94,0,0,0-4-5.16c-2.83-2.14-7.38-4.37-12.8-2.49.58-5.06-5.93-9.84-5.93-9.84V402.4L295.65,415v2.6L288,426C286,427.57,289.14,438.42,299.13,433.21Z" transform="translate(-61.98 -128.2)"/><path class="cls-137" d="M315.73,439.53s-9.29,20.67-.64,29.94S336,481.92,336,481.92s25.19,7.55,40.94-.8l.12-.06c-.33-8.28.19-12.14,7.51-17.47-8.1,4.45-34.36,8.92-38-3s-13.39-8.47-22.31-6.36c-9.19-2.33-6.13-22.76-6.13-22.76a18.71,18.71,0,0,0,2-14.36c-.43,10.87-9.52,9.62-9.52,9.62Z" transform="translate(-61.98 -128.2)"/><path class="cls-138" d="M318.86,465.88c8.64,9.28,20.87,12.44,20.87,12.44s21.76,6.52,37.48.74v2.57c-.06-.19-.13-.37-.19-.56-15.75,8.43-41,.84-41,.84s-12.23-3.16-20.88-12.44c-7.53-8.09-1.45-24.81.23-29C315.32,440.49,312.75,459.33,318.86,465.88Z" transform="translate(-61.98 -128.2)"/><path class="cls-139" d="M295.18,479.31l18.23-3.73,4.43-14.6c2.09-8.37,32.61-11.29,22.07,11.93l-9.56,13.5H301.11s-11.57,6.75-12.42,19.4l6.8,6.46-3.14,3.59H281.59v-9.7S282.85,490.39,295.18,479.31Z" transform="translate(-61.98 -128.2)"/><path class="cls-140" d="M356.72,472.2c0,8.6,1.22,15.57,2.72,15.57s2.72-7,2.72-15.57-1.22-15.57-2.72-15.57S356.72,463.6,356.72,472.2Z" transform="translate(-61.98 -128.2)"/><path class="cls-141" d="M341.12,425.36c3.53,1.91,5,3.09,8.5,4.19,3.8,13.83,31.89,6,36.76,2.05a3.32,3.32,0,0,1,3.1-.7s-7.63,36.42-28.57,36.42S341.12,425.36,341.12,425.36Z" transform="translate(-61.98 -128.2)"/><path class="cls-142" d="M344.07,426.54c3.17,1.38,6.36,2.88,7.87,5.66,22.51,7.8,34.44-.6,34.44-.6s-7,32.3-25,32.3S344.07,426.54,344.07,426.54Z" transform="translate(-61.98 -128.2)"/><path class="cls-143" d="M304.18,431.89h0a1.1,1.1,0,0,0,.25-1.54l-8.92-12.82a1.1,1.1,0,1,0-1.78,1.29l8.91,12.82A1.11,1.11,0,0,0,304.18,431.89Z" transform="translate(-61.98 -128.2)"/><path class="cls-144" d="M315.77,413.78h0a1.1,1.1,0,0,0-1.56,0L299.66,429a1.1,1.1,0,1,0,1.54,1.57l14.55-15.19A1.09,1.09,0,0,0,315.77,413.78Z" transform="translate(-61.98 -128.2)"/><path class="cls-145" d="M311.13,398.77s8.79,21.23-.51,27.92c12.26-.21,5.52-28.59,5.52-28.59A4.54,4.54,0,0,0,311.13,398.77Z" transform="translate(-61.98 -128.2)"/><path class="cls-146" d="M298.18,430s-3.34,4.29-7.84,3.35a5.2,5.2,0,0,0,5.07,1.13S298.13,432.39,298.18,430Z" transform="translate(-61.98 -128.2)"/><rect class="cls-147" x="0.5" y="426.66" width="595.04" height="13.28"/><rect class="cls-148" x="16.77" y="413.38" width="562.5" height="13.28"/><path class="cls-149" d="M633.31,543.57a4.65,4.65,0,1,0,4.44,4.65A4.55,4.55,0,0,0,633.31,543.57Z" transform="translate(-61.98 -128.2)"/><path class="cls-150" d="M609.7,543.57a4.65,4.65,0,1,0,4.45,4.65A4.55,4.55,0,0,0,609.7,543.57Z" transform="translate(-61.98 -128.2)"/><path class="cls-151" d="M586.09,543.57a4.65,4.65,0,1,0,4.45,4.65A4.55,4.55,0,0,0,586.09,543.57Z" transform="translate(-61.98 -128.2)"/><path class="cls-152" d="M562.48,543.57a4.65,4.65,0,1,0,4.45,4.65A4.55,4.55,0,0,0,562.48,543.57Z" transform="translate(-61.98 -128.2)"/><path class="cls-153" d="M538.87,543.57a4.65,4.65,0,1,0,4.45,4.65A4.55,4.55,0,0,0,538.87,543.57Z" transform="translate(-61.98 -128.2)"/><path class="cls-154" d="M515.26,543.57a4.65,4.65,0,1,0,4.45,4.65A4.55,4.55,0,0,0,515.26,543.57Z" transform="translate(-61.98 -128.2)"/><path class="cls-155" d="M491.65,543.57a4.65,4.65,0,1,0,4.45,4.65A4.55,4.55,0,0,0,491.65,543.57Z" transform="translate(-61.98 -128.2)"/><path class="cls-156" d="M468,543.57a4.65,4.65,0,1,0,4.45,4.65A4.55,4.55,0,0,0,468,543.57Z" transform="translate(-61.98 -128.2)"/><path class="cls-157" d="M444.43,543.57a4.65,4.65,0,1,0,4.45,4.65A4.55,4.55,0,0,0,444.43,543.57Z" transform="translate(-61.98 -128.2)"/><path class="cls-158" d="M420.82,543.57a4.65,4.65,0,1,0,4.45,4.65A4.55,4.55,0,0,0,420.82,543.57Z" transform="translate(-61.98 -128.2)"/><path class="cls-159" d="M397.21,543.57a4.65,4.65,0,1,0,4.45,4.65A4.55,4.55,0,0,0,397.21,543.57Z" transform="translate(-61.98 -128.2)"/><path class="cls-160" d="M373.6,543.57a4.65,4.65,0,1,0,4.45,4.65A4.55,4.55,0,0,0,373.6,543.57Z" transform="translate(-61.98 -128.2)"/><path class="cls-161" d="M350,543.57a4.65,4.65,0,1,0,4.45,4.65A4.55,4.55,0,0,0,350,543.57Z" transform="translate(-61.98 -128.2)"/><path class="cls-162" d="M326.38,543.57a4.65,4.65,0,1,0,4.45,4.65A4.55,4.55,0,0,0,326.38,543.57Z" transform="translate(-61.98 -128.2)"/><path class="cls-163" d="M302.77,543.57a4.65,4.65,0,1,0,4.45,4.65A4.55,4.55,0,0,0,302.77,543.57Z" transform="translate(-61.98 -128.2)"/><path class="cls-164" d="M279.16,543.57a4.65,4.65,0,1,0,4.45,4.65A4.55,4.55,0,0,0,279.16,543.57Z" transform="translate(-61.98 -128.2)"/><path class="cls-165" d="M255.55,543.57a4.65,4.65,0,1,0,4.45,4.65A4.55,4.55,0,0,0,255.55,543.57Z" transform="translate(-61.98 -128.2)"/><path class="cls-166" d="M231.94,543.57a4.65,4.65,0,1,0,4.45,4.65A4.55,4.55,0,0,0,231.94,543.57Z" transform="translate(-61.98 -128.2)"/><path class="cls-167" d="M208.33,543.57a4.65,4.65,0,1,0,4.45,4.65A4.55,4.55,0,0,0,208.33,543.57Z" transform="translate(-61.98 -128.2)"/><path class="cls-168" d="M184.72,543.57a4.65,4.65,0,1,0,4.45,4.65A4.55,4.55,0,0,0,184.72,543.57Z" transform="translate(-61.98 -128.2)"/><path class="cls-169" d="M161.11,543.57a4.65,4.65,0,1,0,4.45,4.65A4.55,4.55,0,0,0,161.11,543.57Z" transform="translate(-61.98 -128.2)"/><path class="cls-170" d="M137.5,543.57a4.65,4.65,0,1,0,4.45,4.65A4.55,4.55,0,0,0,137.5,543.57Z" transform="translate(-61.98 -128.2)"/><path class="cls-171" d="M113.89,543.57a4.65,4.65,0,1,0,4.45,4.65A4.55,4.55,0,0,0,113.89,543.57Z" transform="translate(-61.98 -128.2)"/><path class="cls-172" d="M90.28,543.57a4.65,4.65,0,1,0,4.45,4.65A4.55,4.55,0,0,0,90.28,543.57Z" transform="translate(-61.98 -128.2)"/><path class="cls-173" d="M150.6,502.46l13.12-3.63L165,493l-.1-.13a13.51,13.51,0,0,1-.85-1.48l-.07-.15a16,16,0,0,1-.64-1.59l-.06-.2c-.18-.56-.34-1.14-.47-1.73l0-.12a25,25,0,0,1-.48-3.85v-.18c0-.63-.05-1.27,0-1.91v-.28c0-.63,0-1.26.07-1.89v-.24l.06-.8.09-1v-.13c.07-.62.14-1.23.23-1.84l0-.32c.08-.58.17-1.15.26-1.7l.06-.35.3-1.62,0-.22c.11-.51.21-1,.32-1.49l0-.14q.16-.74.33-1.41l.05-.22c.11-.43.21-.84.31-1.21l.05-.18c.1-.38.2-.74.29-1.05v0c.09-.33.17-.62.25-.87h0c.18-.6.29-.94.29-.94l-3.67-12.5a7.75,7.75,0,0,1-.62.58l0,0-.19.17-.14.12-.15.12-.28.23-.07.05c-.66.55-1.62,1.29-3,2.29a1.34,1.34,0,0,1-.19,1.48A.66.66,0,0,1,156,456l-.11-.21c-.72.53-1.52,1.1-2.42,1.74a7.27,7.27,0,0,1-2.66,1.24l0,0s-3.8,1.93-5.48.24l2-1.2-.15-.14h0a7.38,7.38,0,0,1-1.73-3.09,6.56,6.56,0,0,1-.18-3.75,1.12,1.12,0,0,1,.23-.39l4.35-6.48-.25-.49a1.34,1.34,0,0,1,.18-1.5.68.68,0,0,1,1.11.25l.05.1,0-.05v-2.54l4.63-8.26a16.46,16.46,0,0,1,2.24-7L154,414.37s5.51,0,5.9,2.67a14.64,14.64,0,0,1,1.74,3.57,13.12,13.12,0,0,1,6.93-1.77c9.64,0,16.18,14.71,17.47,32.35,2.19,1.31,4.35,2.75,5.39,5.36,16.2,7.6,24.78-.58,24.78-.58a1.89,1.89,0,0,1,2.23-.69c1,0,1.67,3.1,1.8,6a21,21,0,0,1,2.79.4h0c1.71-1.35,9.83-5.62,17.17,7,4.39,9.28,3.11,19.08,3.11,23.23-1.81,9.72,3.75,4.57,6.57,0h3.79c-1.9,11.23-5.83,15.88-10,16.42.13.89.27,1.83.42,2.81,1.37,8.59,4,20.1,8.09,21.37h0c0,.67,1.52,9,1.52,9h0s-11.33.68-11.33-12.88l-.9-4.59-1.83-9.25c-.07,0-25.4,9.09-30-10.14,0-.19-.1-.36-.14-.55-2.85,2.07-9.5,3.42-12.83,3.88h-.08c-.38.05-.76.1-1.14.13l-.36,0-.49,0c-.32,1.71-.7,2.72-1.11,2.72s-.8-1-1.11-2.66h-.57C183.71,508.16,180,505,180,505s-.54-.19-1.44-.61l-2.61,5h-21a26.94,26.94,0,0,0-8.93,18.91l4.89,6.3-2.26,3.49h-7.74v-9.45S141.73,513.26,150.6,502.46ZM235,504.07a23.76,23.76,0,0,1-3.77-5.9C225.32,504.94,229.91,505.16,235,504.07Z" transform="translate(-61.98 -128.2)"/><path class="cls-174" d="M207.92,462.18c0,3.12,1.92,5.65,4.29,5.65s4.28-2.53,4.28-5.65-.75-6.9-1.82-6.9C212.81,454.88,210.17,463,207.92,462.18Z" transform="translate(-61.98 -128.2)"/><path class="cls-175" d="M219.26,461.7c1.71-1.36,9.83-5.64,17.18,7,4.39,9.28,3.11,19.08,3.11,23.23,0,1.63,3,10,10.36,0-5.35,31.52-26.61,11.41-24.81-6.79Z" transform="translate(-61.98 -128.2)"/><path class="cls-6" d="M221,463s15.65-2.79,14.22,25.84C235.8,464.73,221,463,221,463Z" transform="translate(-61.98 -128.2)"/><path class="cls-6" d="M230.05,463.49s12.5,9.6,7.7,32C240.42,474.81,230.05,463.49,230.05,463.49Z" transform="translate(-61.98 -128.2)"/><path class="cls-6" d="M233,478.3a26.79,26.79,0,0,1,.57,12.82C233.53,485.63,233,478.3,233,478.3Z" transform="translate(-61.98 -128.2)"/><path class="cls-6" d="M244.83,504.11s-10.91,6.05-13.9-15C233.93,506.69,244.83,504.11,244.83,504.11Z" transform="translate(-61.98 -128.2)"/><path class="cls-6" d="M238.26,506.11S227.88,502.4,228.19,485C229.17,500.6,238.26,506.11,238.26,506.11Z" transform="translate(-61.98 -128.2)"/><path class="cls-6" d="M234,496.18a18.61,18.61,0,0,1-2.21-9.12C232.63,491,234,496.18,234,496.18Z" transform="translate(-61.98 -128.2)"/><path class="cls-6" d="M246.45,498.91s-4.25,4.5-7-1.9A6.56,6.56,0,0,0,246.45,498.91Z" transform="translate(-61.98 -128.2)"/><path class="cls-176" d="M164.8,418.84c10.81,0,17.71,18.48,17.71,38.85L153.78,431.5S152.31,418.84,164.8,418.84Z" transform="translate(-61.98 -128.2)"/><path class="cls-6" d="M157.53,424s15.29-9.67,19.54,23.75C172.82,419.79,157.53,424,157.53,424Z" transform="translate(-61.98 -128.2)"/><path class="cls-6" d="M166.75,420.75s14.57,5.83,14.17,33.55C179.5,429.44,166.75,420.75,166.75,420.75Z" transform="translate(-61.98 -128.2)"/><path class="cls-6" d="M172.68,436.5A32.28,32.28,0,0,1,175.81,451C174.68,444.69,172.68,436.5,172.68,436.5Z" transform="translate(-61.98 -128.2)"/><path class="cls-177" d="M176.17,505s18.21,7.4,29.54-.82c4.24,20,30.14,10.69,30.14,10.69l2.73,13.84c0,13.56,11.33,12.88,11.33,12.88s-1.47-8.38-1.52-9.05c-6.67-2-9.3-30.83-9.3-30.83s-23.07,8.77-10.93-4.38-2-34-8.9-35.62-25.27,1-32.67-4c-8.72-5.54-14.52-20.83-16.23-26.27a12.69,12.69,0,0,0-2.86-5c-2-2.1-5.3-4.26-9.21-2.44.42-4.93-4.27-9.59-4.27-9.59v13.12l-6.87,12.27v2.54l-5.48,8.17c-1.48,1.57.79,12.13,8,7.06s8.28-6.35,8.28-6.35l3.67,12.5s-6.68,20.15-.46,29.19A33.92,33.92,0,0,0,176.17,505Z" transform="translate(-61.98 -128.2)"/><path class="cls-178" d="M149.65,457.53c6.73-4.76,8.12-6.18,8.26-6.34h0l3.67,12.51s-6.68,20.14-.46,29.18a33.85,33.85,0,0,0,15,12.13s18.12,7.36,29.46-.78l.08-.06c4.24,20,30.14,10.69,30.14,10.69l2.73,13.85c0,13.56,11.34,12.87,11.34,12.87s-1.48-8.36-1.52-9c-6.68-2-9.31-30.83-9.31-30.83s-23.07,8.77-10.93-4.39-2-34-8.9-35.63-25.27,1-32.67-4c-8.71-5.55-14.52-20.85-16.22-26.28a12.81,12.81,0,0,0-2.87-5c-2-2.09-5.31-4.26-9.21-2.43.42-4.93-4.27-9.59-4.27-9.59V427.5l-6.86,12.27v2.52l-5.49,8.18C140.19,452,142.47,462.61,149.65,457.53Z" transform="translate(-61.98 -128.2)"/><path class="cls-179" d="M161.6,463.69s-6.68,20.14-.46,29.18a33.85,33.85,0,0,0,15,12.13s18.12,7.36,29.46-.78l.08-.06c-.24-8.06.14-11.83,5.41-17-5.83,4.34-24.73,8.69-27.34-3s-9.64-8.25-16.05-6.2c-6.62-2.26-4.41-22.17-4.41-22.17a23.74,23.74,0,0,0,1.46-14c-.31,10.59-6.85,9.38-6.85,9.38Z" transform="translate(-61.98 -128.2)"/><path class="cls-180" d="M163.85,489.37a33.87,33.87,0,0,0,15,12.12s15.65,6.36,27,.72v2.51c0-.19-.1-.36-.14-.55-11.33,8.22-29.54.82-29.54.82a33.87,33.87,0,0,1-15-12.12c-5.43-7.88-1.05-24.18.16-28.25C161.31,464.62,159.46,483,163.85,489.37Z" transform="translate(-61.98 -128.2)"/><path class="cls-181" d="M146.81,502.46l13.12-3.63,3.19-14.24c1.5-8.15,23.47-11,15.88,11.63l-6.88,13.16h-21a26.9,26.9,0,0,0-8.93,18.91l4.89,6.3-2.26,3.49H137v-9.45S137.94,513.26,146.81,502.46Z" transform="translate(-61.98 -128.2)"/><path class="cls-182" d="M191.1,495.53c0,8.38.88,15.18,2,15.18s1.95-6.8,1.95-15.18-.87-15.18-1.95-15.18S191.1,487.15,191.1,495.53Z" transform="translate(-61.98 -128.2)"/><path class="cls-183" d="M179.87,449.88c2.54,1.86,3.6,3,6.12,4.08,2.73,13.48,22.95,5.89,26.45,2a1.89,1.89,0,0,1,2.23-.69s-5.49,35.5-20.56,35.5S179.87,449.88,179.87,449.88Z" transform="translate(-61.98 -128.2)"/><path class="cls-184" d="M182,451c2.28,1.35,4.58,2.8,5.67,5.52,16.2,7.6,24.78-.58,24.78-.58s-5,31.47-18,31.47S182,451,182,451Z" transform="translate(-61.98 -128.2)"/><path class="cls-185" d="M153.29,456.24h0a1.32,1.32,0,0,0,.18-1.5l-6.41-12.49A.68.68,0,0,0,146,442a1.34,1.34,0,0,0-.18,1.5l6.41,12.5A.67.67,0,0,0,153.29,456.24Z" transform="translate(-61.98 -128.2)"/><path class="cls-186" d="M161.63,438.59h0a.66.66,0,0,0-1.12,0L150,453.38a1.36,1.36,0,0,0,0,1.52.66.66,0,0,0,1.12,0l10.47-14.8A1.36,1.36,0,0,0,161.63,438.59Z" transform="translate(-61.98 -128.2)"/><path class="cls-187" d="M158.29,424s6.33,20.7-.36,27.22c8.82-.21,4-27.87,4-27.87S160.18,422,158.29,424Z" transform="translate(-61.98 -128.2)"/><path class="cls-188" d="M149,454.43s-2.4,4.18-5.64,3.26a3,3,0,0,0,3.65,1.1A7.57,7.57,0,0,0,149,454.43Z" transform="translate(-61.98 -128.2)"/><path class="cls-173" d="M491.24,490.72l11.63-3.63,1.16-5.84-.08-.13a11.44,11.44,0,0,1-.76-1.48l-.06-.14a15.71,15.71,0,0,1-.57-1.59l-.05-.2c-.16-.56-.3-1.14-.42-1.73l0-.12a29.43,29.43,0,0,1-.43-3.85v-.18c0-.63,0-1.27,0-1.91v-.28q0-.94.06-1.89l0-.24c0-.27,0-.54,0-.8l.09-1v-.13c.06-.62.12-1.23.2-1.84l0-.32c.08-.58.16-1.15.24-1.7l0-.35c.09-.55.17-1.1.27-1.62l0-.22c.09-.52.18-1,.27-1.49l0-.14c.1-.49.2-1,.29-1.41l.05-.22c.1-.43.19-.84.28-1.21l0-.19c.09-.37.17-.73.25-1v0c.08-.33.16-.62.22-.87h0c.15-.6.25-.94.25-.94l-3.26-12.5a6.32,6.32,0,0,1-.55.58l0,0-.17.17-.12.11-.13.13-.26.23,0,.05c-.59.54-1.44,1.29-2.64,2.29a1.49,1.49,0,0,1-.17,1.48c-.31.34-.75.23-1-.24l-.09-.21-2.15,1.74A6.14,6.14,0,0,1,491.4,447l0,0s-2.27.24-3.1-1l-.13-.14h0a7.61,7.61,0,0,1-1.53-3.09,7.45,7.45,0,0,1-.17-3.75,1.29,1.29,0,0,1,.21-.39l3.86-6.49-.22-.48a1.45,1.45,0,0,1,.16-1.5c.31-.34.75-.23,1,.24l.05.11,0-.05V428l4.11-8.26a18,18,0,0,1,2-7l-.46-10.11h2.57c.58,1,.93,4.9,1.3,6.24a10.65,10.65,0,0,1,6.15-1.77c8.56,0,14.35,14.71,15.5,32.35,1.94,1.31,3.86,2.75,4.78,5.36,14.38,7.6,22-.59,22-.59a1.57,1.57,0,0,1,2-.69c.86,0,1.48,3.11,1.59,6a16.5,16.5,0,0,1,2.48.4h0c1.52-1.35,8.72-5.62,15.23,7,3.89,9.28,2.76,19.08,2.76,23.23-1.61,9.72,3.33,4.57,5.83,0h3.37c-1.7,11.23-5.18,15.88-8.9,16.42.11.89.24,1.83.38,2.81,1.21,8.59,3.5,20.1,7.17,21.37h0c0,.66,1.35,9,1.35,9h0s-10.06.69-10.06-12.88l-.8-4.58-1.62-9.25c-.07,0-22.53,9.09-26.62-10.14h0c0-.19-.09-.36-.13-.55-2.52,2.07-8.42,3.42-11.37,3.88H532c-.34.05-.68.1-1,.13l-.32,0-.43,0c-.28,1.72-.62,2.73-1,2.73s-.7-1-1-2.66h-.51c-7.19-.16-10.51-3.32-10.51-3.32s-.48-.19-1.28-.61l-2.31,5H495s-7.39,6.57-7.93,18.9l4.35,6.31-2,3.49h-6.87v-9.45S483.36,501.52,491.24,490.72Zm74.84,1.61a24.69,24.69,0,0,1-3.34-5.9C557.52,493.2,561.59,493.42,566.08,492.33Z" transform="translate(-61.98 -128.2)"/><path class="cls-189" d="M547.56,450.44c0,3.12,1.7,5.65,3.8,5.65s3.8-2.53,3.8-5.65-.67-6.91-1.61-6.91C551.89,443.14,549.55,451.3,547.56,450.44Z" transform="translate(-61.98 -128.2)"/><path class="cls-190" d="M557.62,450c1.51-1.36,8.72-5.64,15.24,7,3.89,9.28,2.76,19.08,2.76,23.23,0,1.63,2.67,10,9.19,0-4.74,31.51-23.61,11.41-22-6.8Z" transform="translate(-61.98 -128.2)"/><path class="cls-6" d="M559.19,451.3s13.89-2.79,12.62,25.84C572.29,453,559.19,451.3,559.19,451.3Z" transform="translate(-61.98 -128.2)"/><path class="cls-6" d="M567.19,451.75s11.1,9.6,6.83,32C576.4,463.07,567.19,451.75,567.19,451.75Z" transform="translate(-61.98 -128.2)"/><path class="cls-6" d="M569.81,466.55a30.2,30.2,0,0,1,.51,12.83C570.28,473.89,569.81,466.55,569.81,466.55Z" transform="translate(-61.98 -128.2)"/><path class="cls-6" d="M580.31,492.37s-9.68,6.05-12.34-15C570.63,495,580.31,492.37,580.31,492.37Z" transform="translate(-61.98 -128.2)"/><path class="cls-6" d="M574.47,494.37s-9.21-3.72-8.92-21.16C566.41,488.86,574.47,494.37,574.47,494.37Z" transform="translate(-61.98 -128.2)"/><path class="cls-6" d="M570.73,484.43a20.25,20.25,0,0,1-2-9.11C569.48,479.28,570.73,484.43,570.73,484.43Z" transform="translate(-61.98 -128.2)"/><path class="cls-6" d="M581.74,487.17s-3.76,4.5-6.25-1.9A5.35,5.35,0,0,0,581.74,487.17Z" transform="translate(-61.98 -128.2)"/><path class="cls-191" d="M509.3,407.1c9.59,0,15.72,18.48,15.72,38.85l-25.28-26.19S498.22,407.1,509.3,407.1Z" transform="translate(-61.98 -128.2)"/><path class="cls-6" d="M502.85,412.22s13.56-9.67,17.33,23.75C516.41,408.05,502.85,412.22,502.85,412.22Z" transform="translate(-61.98 -128.2)"/><path class="cls-6" d="M511,409s12.92,5.83,12.57,33.55C522.34,417.7,511,409,511,409Z" transform="translate(-61.98 -128.2)"/><path class="cls-6" d="M516.3,424.76a35.69,35.69,0,0,1,2.77,14.47C518.06,433,516.3,424.76,516.3,424.76Z" transform="translate(-61.98 -128.2)"/><path class="cls-192" d="M519.39,493.25s16.15,7.4,26.2-.82c3.77,20,26.75,10.69,26.75,10.69L574.76,517c0,13.57,10,12.88,10,12.88s-1.31-8.37-1.34-9c-5.93-2-8.26-30.83-8.26-30.83s-20.46,8.77-9.69-4.38-1.8-34-7.9-35.62-22.42,1-29-4c-7.73-5.54-12.88-20.83-14.39-26.27a13.15,13.15,0,0,0-2.55-5c-1.8-2.1-4.7-4.26-8.16-2.44.36-4.93-3.79-9.59-3.79-9.59v13.12L493.64,428v2.54l-4.86,8.17c-1.31,1.57.7,12.13,7.08,7.06s7.34-6.35,7.34-6.35l3.26,12.5s-5.92,20.14-.4,29.19A30.65,30.65,0,0,0,519.39,493.25Z" transform="translate(-61.98 -128.2)"/><path class="cls-193" d="M495.86,445.79c6-4.76,7.2-6.18,7.33-6.34v0L506.47,452s-5.93,20.14-.42,29.17a30.61,30.61,0,0,0,13.34,12.14s16.08,7.36,26.13-.78l.08-.06c3.76,20,26.73,10.69,26.73,10.69L574.76,517c0,13.56,10.06,12.87,10.06,12.87s-1.31-8.37-1.35-9c-5.93-2.06-8.26-30.83-8.26-30.83s-20.47,8.77-9.69-4.39-1.79-34-7.9-35.63-22.43,1-29-4c-7.72-5.55-12.88-20.85-14.39-26.29a13.43,13.43,0,0,0-2.54-5c-1.81-2.09-4.71-4.26-8.17-2.43.37-4.93-3.79-9.59-3.79-9.59v13.13L493.65,428v2.53l-4.87,8.18C487.47,440.29,489.49,450.87,495.86,445.79Z" transform="translate(-61.98 -128.2)"/><path class="cls-194" d="M506.47,452s-5.93,20.14-.42,29.17a30.61,30.61,0,0,0,13.34,12.14s16.08,7.36,26.13-.78l.08-.06c-.21-8.06.12-11.83,4.79-17-5.17,4.34-21.93,8.69-24.25-3s-8.55-8.25-14.24-6.2C506,464,508,444.06,508,444.06a26.44,26.44,0,0,0,1.29-14c-.27,10.59-6.08,9.37-6.08,9.37Z" transform="translate(-61.98 -128.2)"/><path class="cls-195" d="M508.46,477.63a30.65,30.65,0,0,0,13.33,12.12s13.89,6.36,23.93.72V493c0-.19-.09-.36-.13-.55-10.05,8.22-26.2.82-26.2.82a30.65,30.65,0,0,1-13.33-12.12c-4.81-7.88-.93-24.18.14-28.25C506.2,452.88,504.56,471.24,508.46,477.63Z" transform="translate(-61.98 -128.2)"/><path class="cls-196" d="M493.34,490.72,505,487.09l2.83-14.24c1.33-8.15,20.82-11,14.09,11.63l-6.1,13.16H497.13s-7.39,6.57-7.93,18.9l4.34,6.31-2,3.49h-6.87v-9.45S485.47,501.52,493.34,490.72Z" transform="translate(-61.98 -128.2)"/><path class="cls-197" d="M532.64,483.79c0,8.38.77,15.17,1.73,15.17s1.74-6.79,1.74-15.17-.78-15.18-1.74-15.18S532.64,475.41,532.64,483.79Z" transform="translate(-61.98 -128.2)"/><path class="cls-198" d="M522.68,438.14c2.24,1.86,3.19,3,5.42,4.08,2.43,13.48,20.36,5.89,23.47,2a1.57,1.57,0,0,1,2-.69S548.68,479,535.31,479,522.68,438.14,522.68,438.14Z" transform="translate(-61.98 -128.2)"/><path class="cls-199" d="M524.56,439.29c2,1.35,4.06,2.8,5,5.52,14.37,7.6,22-.59,22-.59s-4.46,31.48-16,31.48S524.56,439.29,524.56,439.29Z" transform="translate(-61.98 -128.2)"/><path class="cls-200" d="M499.09,444.5h0a1.48,1.48,0,0,0,.16-1.5l-5.69-12.5c-.23-.47-.67-.58-1-.24a1.48,1.48,0,0,0-.17,1.5l5.7,12.5C498.33,444.73,498.78,444.84,499.09,444.5Z" transform="translate(-61.98 -128.2)"/><path class="cls-201" d="M506.49,426.85h0a.56.56,0,0,0-1,0l-9.29,14.81a1.53,1.53,0,0,0,0,1.52.56.56,0,0,0,1,0l9.29-14.8A1.5,1.5,0,0,0,506.49,426.85Z" transform="translate(-61.98 -128.2)"/><path class="cls-202" d="M503.53,412.22s5.61,20.7-.33,27.21c7.83-.2,3.52-27.86,3.52-27.86S505.21,410.21,503.53,412.22Z" transform="translate(-61.98 -128.2)"/><path class="cls-203" d="M495.26,442.69s-2.13,4.18-5,3.26c1.56,2.09,3.23,1.1,3.23,1.1A8,8,0,0,0,495.26,442.69Z" transform="translate(-61.98 -128.2)"/></svg>